<svg width="34" height="34" viewBox="0 0 34 34" fill="none" xmlns="http://www.w3.org/2000/svg">
<path class="icon__color-element" d="M33 32.9999L25.5233 25.5099M15.5 9.66659V15.4999M15.5 15.4999V21.3333M15.5 15.4999H21.3333M15.5 15.4999H9.66668M29.6667 15.4999C29.6667 19.2572 28.1741 22.8605 25.5174 25.5173C22.8606 28.174 19.2572 29.6666 15.5 29.6666C11.7428 29.6666 8.13943 28.174 5.48266 25.5173C2.8259 22.8605 1.33334 19.2572 1.33334 15.4999C1.33334 11.7427 2.8259 8.13934 5.48266 5.48257C8.13943 2.82581 11.7428 1.33325 15.5 1.33325C19.2572 1.33325 22.8606 2.82581 25.5174 5.48257C28.1741 8.13934 29.6667 11.7427 29.6667 15.4999V15.4999Z" stroke="#000000" stroke-width="2" stroke-linecap="round"/>
</svg>
