<svg width="14" height="15" viewBox="0 0 14 15" fill="none" xmlns="http://www.w3.org/2000/svg">
<path class="icon__color-element" d="M0.724027 0.553058C0.640327 0.511195 0.546558 0.493663 0.453387 0.502456C0.360216 0.511249 0.271383 0.546015 0.196993 0.602797C0.122602 0.65958 0.0656413 0.7361 0.0325888 0.823654C-0.000463657 0.911208 -0.00828063 1.00628 0.0100271 1.09806L1.41303 5.94806C1.43919 6.03844 1.49032 6.11961 1.56055 6.18223C1.63078 6.24485 1.71725 6.28638 1.81003 6.30206L7.50003 7.25506C7.76803 7.30806 7.76803 7.69206 7.50003 7.74506L1.81003 8.69806C1.71725 8.71373 1.63078 8.75527 1.56055 8.81789C1.49032 8.88051 1.43919 8.96168 1.41303 9.05206L0.0100271 13.9021C-0.00828063 13.9938 -0.000463657 14.0889 0.0325888 14.1765C0.0656413 14.264 0.122602 14.3405 0.196993 14.3973C0.271383 14.4541 0.360216 14.4889 0.453387 14.4977C0.546558 14.5065 0.640327 14.4889 0.724027 14.4471L13.724 7.94706C13.807 7.90549 13.8767 7.84166 13.9254 7.76272C13.9742 7.68378 14 7.59283 14 7.50006C14 7.40728 13.9742 7.31634 13.9254 7.2374C13.8767 7.15845 13.807 7.09463 13.724 7.05306L0.724027 0.553058Z" fill="#000000"/>
</svg>
