<svg width="33" height="33" fill="none" xmlns="http://www.w3.org/2000/svg"><g clip-path="url(#clip0_338_27)"><path d="M1.492 33l-.026-.006C.708 32.777.216 32.286 0 31.528v-4.66l.006-.02c.192-.809.702-1.42 1.607-1.924.828-.46 1.663-.95 2.467-1.422.541-.319 1.102-.65 1.663-.969a2.822 2.822 0 001.3-1.542c.332-.905.683-1.823 1.014-2.71.37-.987.759-2 1.128-3.008.523-1.421 1.492-2.301 2.958-2.696 1.25-.338 2.524-.689 3.755-1.033l1.51-.42V2.18c0-1.243.313-1.708 1.447-2.167L18.887 0h12.615l.026.006c.752.21 1.249.708 1.466 1.466l.006.026v22.425l-.006.025c-.325.988-1.014 1.447-2.174 1.447h-.051a287.76 287.76 0 00-2.53-.012h-2.614c-.81 0-1.88 0-2.958-.02h-.044c-.568 0-.906.166-1.205.6-.657.943-1.575 1.676-2.805 2.237-.848.389-1.683.841-2.499 1.275l-.012.006c-1.384.746-2.977 1.632-4.418 2.722-.268.198-.554.37-.835.536-.127.076-.255.153-.376.23l-.045.025H1.492V33zm3.582-8.395c-.006 0-.026 0-.09.038-.618.364-1.242.733-1.854 1.084l-1.199.701c-.325.191-.484.478-.484.873v3.755c0 .363.121.49.472.49h3.295c1.715 0 3.277 0 4.768-.006.128 0 .236-.019.287-.057.268-.191.523-.402.797-.618.05-.045.108-.083.16-.128l-1.43-1.427a3265.326 3265.326 0 01-4.653-4.66c-.05-.044-.07-.044-.07-.044zm7.362 5.227c.53-.28 1.059-.555 1.588-.835 1.517-.797 3.091-1.62 4.621-2.46.433-.236.867-.6 1.294-1.065.6-.663 1.18-1.37 1.734-2.046.23-.28.465-.568.701-.848l1.186-1.421c1.147-1.377 2.3-2.754 3.442-4.131.14-.172.21-.319.197-.446-.012-.109-.083-.21-.21-.325a3.029 3.029 0 00-1.912-.663 3.01 3.01 0 00-2.021.752c-.49.44-.988.899-1.473 1.338l-.694.638-.854.784c-.797.727-1.626 1.485-2.442 2.225-.178.165-.376.248-.567.248a.683.683 0 01-.504-.236.697.697 0 01-.197-.497c.006-.21.114-.414.306-.6.07-.07.146-.133.216-.197.147-.127.28-.242.396-.376a.593.593 0 00.153-.338c.012-1.784.012-3.595.006-5.348v-1.364c-.038.007-.07.02-.102.026-.497.14-.988.274-1.485.414-1.09.306-2.218.618-3.328.918-.962.255-1.593.841-1.944 1.778-.268.72-.542 1.447-.803 2.149-.408 1.083-.829 2.199-1.224 3.308-.433 1.211-1.115 2.065-2.097 2.607l6.017 6.01zm11.978-5.903h6.68c.325 0 .459-.076.459-.535V1.976c0-.427-.102-.535-.523-.535H19.397c-.44 0-.542.102-.542.548v16.216c.172-.166.345-.319.517-.459.159-.127.21-.248.21-.484-.006-3.519-.006-7.101-.006-10.563V5.246c0-.612.235-.867.828-.911.733-.058 1.275-.6 1.339-1.34.05-.605.3-.828.911-.828h5.068c.637 0 .88.223.93.848a1.436 1.436 0 001.327 1.32c.618.05.847.3.847.93v14.852c0 .606-.21.835-.822.906-.746.089-1.288.618-1.345 1.313-.057.65-.287.854-.943.86h-1.542c-.721 0-1.486 0-2.245.007-.134 0-.178.012-.19.025-.198.21-.383.44-.581.689-.006.006-.006.012-.013.019l1.269-.007zm2.881-2.192c.319-1.052 1.013-1.747 2.084-2.072v-7.241c0-2.142 0-4.36.007-6.54 0-.166-.007-.192-.147-.23-.956-.293-1.594-.937-1.906-1.912-.038-.128-.05-.128-.146-.128-.644.007-1.307.007-1.977.007-.637 0-1.306 0-1.976-.007-.102 0-.114 0-.146.121-.306.982-.95 1.626-1.9 1.919-.14.045-.153.064-.153.23.007 2.511.007 5.067.007 7.54v2.818c.16-.14.318-.287.471-.434.472-.44.95-.886 1.556-1.179-1.065-1.613-.988-3.028.216-4.111a2.875 2.875 0 011.925-.733 2.9 2.9 0 011.926.726c.554.498.873 1.11.956 1.823.102.9-.172 1.702-.81 2.384.083.051.16.096.236.14.618.358 1.014.88 1.11 1.473.095.606-.11 1.224-.58 1.753-.657.727-1.288 1.498-1.9 2.244-.262.319-.53.65-.797.969-.121.146-.236.287-.364.44h2.308zM25.191 11.25a1.43 1.43 0 00-1.434 1.44c0 .803.65 1.454 1.447 1.454h.013a1.453 1.453 0 001.434-1.454 1.436 1.436 0 00-1.453-1.447l-.007.007z" fill="#E55025"/></g><defs><clipPath id="clip0_338_27"><path fill="#fff" d="M0 0h33v33H0z"/></clipPath></defs></svg>