<svg width="24" height="24" viewBox="0 0 24 24" fill="none" xmlns="http://www.w3.org/2000/svg">
<path fill-rule="evenodd" clip-rule="evenodd" d="M2.99945 0.0651099C2.43913 0.186967 2.18945 0.359339 1.19788 1.30891C0.0673468 2.39155 0 2.48123 0 2.90355C0 3.16842 0.0197113 3.24464 0.128311 3.40003C0.382117 3.76326 0.773527 3.90861 1.19352 3.79562C1.3613 3.75045 1.50533 3.63732 1.95484 3.19755L2.50925 2.65515L2.52178 10.5068L2.53431 18.3584L2.66534 18.7806C3.04234 19.9953 3.99393 20.9464 5.20941 21.3231L5.63179 21.4541L13.4633 21.4666L21.2949 21.4791L20.7522 22.0376C20.3191 22.4834 20.1986 22.637 20.1551 22.7985C19.9593 23.5252 20.599 24.1603 21.3289 23.9639C21.5093 23.9153 21.6734 23.7733 22.5404 22.9154C23.4627 22.0027 23.5579 21.893 23.7275 21.5479C24.0822 20.8266 24.0802 20.1364 23.7215 19.4202C23.56 19.0976 23.4385 18.9587 22.5395 18.069C21.6734 17.2118 21.5093 17.0698 21.3289 17.0212C20.9145 16.9097 20.495 17.068 20.251 17.428C20.1553 17.5692 20.1337 17.658 20.1337 17.9094C20.1337 18.2936 20.1781 18.3629 20.8796 19.0744L21.4006 19.6027L13.6335 19.5904L5.86645 19.5779L5.61405 19.4746C5.08875 19.2596 4.72526 18.9003 4.52059 18.3937L4.41157 18.1239L4.39914 10.3379L4.38675 2.55196L4.91538 3.07264C5.62677 3.77329 5.69722 3.81842 6.07764 3.81724C6.33122 3.81645 6.41438 3.79478 6.57043 3.68887C6.93663 3.44037 7.08287 3.05078 6.97113 2.62166C6.92255 2.43517 6.80241 2.29957 5.92207 1.43747C4.83105 0.369142 4.58001 0.191845 3.97778 0.0643126C3.59431 -0.0169252 3.37584 -0.0167375 2.99945 0.0651099ZM8.77917 0.0295098C8.56371 0.0843875 8.32806 0.29569 8.20731 0.542452C7.99175 0.982693 8.11898 1.43095 8.54156 1.71984L8.72928 1.84821L15.112 1.87166L21.4947 1.89512L21.6738 2.00642C21.7724 2.06763 21.9097 2.20328 21.9789 2.30787L22.1048 2.49797L22.1283 8.90384L22.1517 15.3097L22.2802 15.4973C22.4551 15.7529 22.6787 15.8933 22.9646 15.9272C23.2896 15.9656 23.6542 15.7926 23.8471 15.5084L23.9821 15.3097L23.9944 8.94258C24.0082 1.86683 24.0223 2.21406 23.6937 1.54334C23.4561 1.05863 22.9417 0.544516 22.4568 0.307228C21.7928 -0.0176287 22.1338 -0.0033699 15.1589 0.00174264C11.7001 0.00432236 8.8292 0.0167988 8.77917 0.0295098ZM17.581 5.11189C16.7257 5.27976 16.0133 6.03543 15.8763 6.92022C15.813 7.32815 15.8492 7.52862 16.0311 7.7796C16.3924 8.278 17.1637 8.278 17.525 7.7796C17.6034 7.67139 17.6798 7.50624 17.6948 7.41253C17.7494 7.07149 17.7682 7.02702 17.8788 6.97665C18.0319 6.9069 18.2031 6.95803 18.2767 7.09555C18.3306 7.19635 18.3226 7.23725 18.2064 7.45061C18.003 7.82411 17.368 8.58128 16.6244 9.33705C16.0579 9.91279 15.9381 10.0595 15.888 10.2381C15.7371 10.7769 16.0999 11.3359 16.6538 11.4176C16.7608 11.4334 17.4715 11.4396 18.2329 11.4315C19.5959 11.4169 19.6202 11.4149 19.7966 11.3053C19.8951 11.2441 20.0324 11.1084 20.1016 11.0039C20.2061 10.846 20.2275 10.7614 20.2275 10.5054C20.2275 9.95562 19.9075 9.62143 19.3372 9.57565C19.1687 9.56214 19.0308 9.54113 19.0308 9.52898C19.0308 9.51683 19.1336 9.37724 19.2594 9.2188C19.7861 8.55516 20.1192 7.90873 20.1812 7.4297C20.1978 7.30076 20.1894 7.0607 20.1625 6.89621C19.9643 5.68618 18.7901 4.87455 17.581 5.11189ZM6.88539 8.39465C6.66833 8.46102 6.37444 8.77035 6.31348 8.99666C6.27893 9.1249 6.26697 10.1831 6.27584 12.321L6.28884 15.4573L6.41475 15.6474C6.60863 15.9401 6.83803 16.0601 7.204 16.0601C7.56993 16.0601 7.79933 15.9402 7.99325 15.6475L8.11917 15.4574L8.14264 13.0852C8.16601 10.7247 8.16662 10.7124 8.27076 10.5664C8.54859 10.1772 9.14463 10.1772 9.42246 10.5664C9.5266 10.7124 9.52721 10.7247 9.55058 13.0852L9.57405 15.4574L9.69997 15.6475C9.89389 15.9402 10.1233 16.0601 10.4892 16.0601C10.8551 16.0601 11.0845 15.9402 11.2785 15.6475L11.4044 15.4574L11.4278 13.0852C11.4512 10.7247 11.4518 10.7124 11.556 10.5664C11.8596 10.141 12.5381 10.1941 12.7596 10.6606C12.8266 10.8017 12.8358 11.0923 12.8358 13.0717V15.3224L12.9665 15.5724C13.0722 15.7748 13.1448 15.8473 13.3473 15.953C13.6668 16.1198 13.882 16.1198 14.2016 15.953C14.4041 15.8473 14.4766 15.7748 14.5824 15.5724L14.7131 15.3224V13.0381C14.7131 11.6117 14.6941 10.6492 14.6626 10.4755C14.4854 9.49863 13.6096 8.62819 12.6098 8.43513C12.0114 8.3196 11.3101 8.45352 10.7706 8.78635L10.4914 8.95858L10.179 8.77026C9.71869 8.49282 9.43194 8.41857 8.82314 8.41923C8.44938 8.4196 8.24481 8.44245 8.08191 8.50192C7.86156 8.58236 7.85358 8.58199 7.69557 8.48438C7.50911 8.36918 7.1123 8.32523 6.88539 8.39465Z" fill="#555555"/>
</svg>
