<svg width="17" height="16" viewBox="0 0 17 16" fill="none" xmlns="http://www.w3.org/2000/svg">
<g clip-path="url(#clip0_421_288)">
<path class="icon__color-element" d="M11.3468 0.768966C11.5875 0.187716 12.2218 -0.121659 12.8281 0.0439663L15.5781 0.793966C16.1218 0.943966 16.5 1.43772 16.5 2.00022C16.5 9.73147 10.2312 16.0002 2.49997 16.0002C1.93747 16.0002 1.44372 15.6221 1.29372 15.0783L0.543722 12.3283C0.378097 11.7221 0.687472 11.0877 1.26872 10.8471L4.26872 9.59709C4.7781 9.38459 5.36872 9.53147 5.7156 9.95959L6.9781 11.5002C9.1781 10.4596 10.9593 8.67834 12 6.47834L10.4593 5.21897C10.0312 4.86897 9.88435 4.28147 10.0968 3.77209L11.3468 0.772091V0.768966Z" fill="#000000"/>
</g>
<defs>
<clipPath id="clip0_421_288">
<rect class="icon__color-element" width="16" height="16" fill="#000000" transform="translate(0.5)"/>
</clipPath>
</defs>
</svg>
