<svg width="33" height="34" fill="none" xmlns="http://www.w3.org/2000/svg"><path fill-rule="evenodd" clip-rule="evenodd" d="M27.13 3.505L27.155 1c-1.96 0-3.91 0-5.878-.008.003.462.005.923.006 1.385.004.924.008 1.847.018 2.77.008.234-.072.363-.266.492-.617.409-1.235.82-1.853 1.232-1.133.754-2.266 1.51-3.404 2.254-.217.145-.298.298-.29.548.012.676.01 1.353.01 2.03l-.002.676c0 .105.007.211.015.323l.001.023h17.48v-.33l-.001-.694c-.002-.692-.003-1.382.009-2.076 0-.242-.089-.37-.274-.492-.73-.476-1.456-.955-2.183-1.433a596.531 596.531 0 00-3.122-2.045c-.226-.153-.307-.306-.299-.572.018-.374.014-.752.011-1.129v-.001l-.002-.448zm3.613 6.651c.233.153.37.306.266.628h-13.53c-.08-.274-.015-.45.234-.62.959-.623 1.91-1.255 2.862-1.887.586-.39 1.172-.778 1.758-1.165a.99.99 0 01.532-.169 74.129 74.129 0 012.677 0c.194.008.403.073.564.177.774.503 1.546 1.01 2.318 1.518.773.508 1.544 1.015 2.319 1.518zM23.285 4.97V2.95h1.862v2.02h-1.862zM.068 16.64L0 16.655c0 5.774 0 11.555.008 17.337h32.96V16.598H.338c-.09 0-.18.021-.27.042zm30.94 15.395H17.48v-13.48h13.529v13.48zM15.48 18.547v5.758H2.008v-5.758H15.48zm-.008 7.73v5.758H2.008v-5.757h13.464zm3.918-3.905h9.651v7.73h-9.65v-7.73zm7.7 1.957h-5.74v3.833h5.74v-3.833zm-5.789-4.88h-1.91v1.957h1.91v-1.957zm3.87.008v1.94h-1.919v-1.94h1.92zm1.943.008v1.94h1.92v-1.94h-1.92zM4.918 21.39v-1.884h7.7v1.884h-7.7zm0 5.838v1.892h7.7v-1.892h-7.7z" fill="#E55025"/></svg>