<svg width="33" height="33" viewBox="0 0 33 33" fill="none" xmlns="http://www.w3.org/2000/svg">
<g clip-path="url(#clip0_338_27)">
<path d="M1.4916 33L1.4661 32.9936C0.707553 32.7769 0.216728 32.2861 0 31.5275V31.502V26.8679L0.00637435 26.8488C0.197605 26.0392 0.707553 25.4273 1.61271 24.9237C2.44138 24.4647 3.27641 23.9739 4.07958 23.5022C4.6214 23.1835 5.18234 22.852 5.74329 22.5333C6.36797 22.1764 6.79505 21.6728 7.04365 20.9907C7.37512 20.0856 7.72571 19.1677 8.05718 18.2816C8.42689 17.2936 8.81572 16.2801 9.18544 15.2729C9.70813 13.8515 10.677 12.9718 12.1431 12.5766C13.3925 12.2387 14.6674 11.8882 15.8976 11.5439C16.4012 11.4037 16.9048 11.2635 17.4083 11.1232V2.18003C17.4083 0.937029 17.7207 0.471702 18.8553 0.0127487L18.8872 0H31.502L31.5275 0.00637435C32.2797 0.216728 32.7769 0.713927 32.9936 1.47247L33 1.49797V23.9229L32.9936 23.9484C32.6685 24.9364 31.9801 25.3954 30.82 25.3954H30.769C30.0359 25.389 29.2583 25.3827 28.2384 25.3827C27.8049 25.3827 27.3715 25.3827 26.9316 25.3827C26.4982 25.3827 26.0647 25.3827 25.6249 25.3827C24.8153 25.3827 23.7444 25.3827 22.6672 25.3635C22.6544 25.3635 22.6353 25.3635 22.6226 25.3635C22.0552 25.3635 21.7174 25.5293 21.4178 25.9627C20.7613 26.9061 19.8433 27.6392 18.6131 28.2001C17.7653 28.589 16.9303 29.0415 16.1144 29.475L16.1016 29.4814C14.7184 30.2272 13.1248 31.1132 11.6842 32.2032C11.4165 32.4008 11.1296 32.5729 10.8491 32.7387C10.7217 32.8151 10.5942 32.8916 10.4731 32.9681L10.4284 32.9936H1.4916V33ZM5.07398 24.605C5.06761 24.605 5.04848 24.605 4.98474 24.6432C4.36643 25.0066 3.74174 25.3763 3.1298 25.7269C2.72822 25.9627 2.33301 26.1922 1.93143 26.428C1.60634 26.6193 1.44698 26.9061 1.44698 27.3013C1.44698 27.8878 1.44698 28.4742 1.44698 29.0543C1.44698 29.7236 1.44698 30.3929 1.44698 31.0558C1.44698 31.4192 1.56809 31.5466 1.91868 31.5466C3.01507 31.5466 4.11783 31.5466 5.21422 31.5466C6.92892 31.5466 8.49063 31.5466 9.98223 31.5403C10.1097 31.5403 10.2181 31.5212 10.2691 31.4829C10.5368 31.2917 10.7918 31.0813 11.0659 30.8646C11.1169 30.82 11.1742 30.7817 11.2252 30.7371L9.79737 29.3093C8.2739 27.7858 6.69307 26.2049 5.1441 24.6496C5.0931 24.605 5.07398 24.605 5.07398 24.605ZM12.4364 29.8319C12.9654 29.5515 13.4945 29.2774 14.0236 28.9969C15.5407 28.2001 17.1151 27.3778 18.645 26.5364C19.0784 26.3006 19.5119 25.9372 19.939 25.4719C20.5381 24.809 21.1182 24.1014 21.6728 23.4257C21.9023 23.1453 22.1381 22.8584 22.374 22.5779L23.5596 21.1565C24.707 19.7796 25.8607 18.4027 27.0017 17.0259C27.142 16.8538 27.2121 16.7072 27.1993 16.5797C27.1866 16.4713 27.1165 16.3693 26.989 16.2546C26.4663 15.8275 25.7842 15.5917 25.0767 15.5917C24.3118 15.5917 23.5978 15.8594 23.056 16.3438C22.5652 16.7837 22.068 17.2426 21.5835 17.6824C21.3541 17.8928 21.1182 18.1095 20.8887 18.3199L20.0346 19.1039C19.2378 19.8306 18.4091 20.5891 17.5932 21.3286C17.4147 21.4943 17.2171 21.5772 17.0259 21.5772C16.841 21.5772 16.6625 21.4943 16.5223 21.3413C16.3884 21.1947 16.3183 21.0226 16.3247 20.8441C16.3311 20.6338 16.4394 20.4298 16.6307 20.2449C16.7008 20.1748 16.7773 20.1111 16.8474 20.0473C16.994 19.9198 17.1279 19.8051 17.2426 19.6712C17.3319 19.5692 17.3956 19.429 17.3956 19.3334C17.4083 17.5486 17.4083 15.7383 17.402 13.9853V12.6212C17.3637 12.6276 17.3319 12.6403 17.3 12.6467C16.8028 12.7869 16.312 12.9208 15.8148 13.061C14.7247 13.367 13.5965 13.6794 12.4873 13.9789C11.5248 14.2339 10.8938 14.8204 10.5432 15.7574C10.2754 16.4777 10.0014 17.2044 9.74 17.9055C9.33205 18.9892 8.91134 20.1047 8.51613 21.2138C8.08267 22.425 7.40062 23.2791 6.41897 23.8209L12.4364 29.8319ZM24.4138 23.9293C25.4591 23.9293 26.4982 23.9293 27.5436 23.9293C28.7292 23.9293 29.9084 23.9293 31.0941 23.9293C31.4192 23.9293 31.553 23.8528 31.553 23.3939C31.553 16.2546 31.553 9.11532 31.553 1.97605C31.553 1.54897 31.451 1.4406 31.0303 1.4406C29.0734 1.4406 27.1165 1.4406 25.1596 1.4406C23.2409 1.4406 21.3158 1.4406 19.3971 1.4406C18.9573 1.4406 18.8553 1.54259 18.8553 1.9888C18.8553 7.39424 18.8553 12.7997 18.8553 18.2051C19.0274 18.0394 19.1995 17.8864 19.3716 17.7462C19.531 17.6187 19.582 17.4976 19.582 17.2617C19.5756 13.7431 19.5756 10.1607 19.5756 6.69944V5.24609C19.5756 4.63415 19.8115 4.37918 20.4043 4.33456C21.1373 4.27719 21.6792 3.73537 21.7429 2.99594C21.7939 2.39038 22.0425 2.16728 22.6544 2.16728C23.4895 2.16728 24.3309 2.16728 25.1659 2.16728C26.0201 2.16728 26.8679 2.16728 27.722 2.16728C28.3595 2.16728 28.6017 2.39038 28.6527 3.01507C28.7101 3.72262 29.2646 4.27719 29.9786 4.33456C30.5969 4.38555 30.8263 4.63415 30.8263 5.26521C30.8263 10.2181 30.8263 15.1646 30.8263 20.1174C30.8263 20.723 30.616 20.9525 30.0041 21.0226C29.2583 21.1118 28.7164 21.6409 28.6591 22.3357C28.6017 22.9859 28.3722 23.1899 27.7157 23.1963C27.3906 23.1963 27.0591 23.1963 26.734 23.1963H26.1731C25.4528 23.1963 24.6878 23.1963 23.9293 23.2026C23.7954 23.2026 23.7508 23.2154 23.7381 23.2281C23.5405 23.4385 23.3556 23.668 23.158 23.9166C23.1516 23.9229 23.1516 23.9293 23.1453 23.9357L24.4138 23.9293ZM27.295 21.7365C27.6137 20.6848 28.3085 19.99 29.3794 19.6649V12.4236C29.3794 10.2818 29.3794 8.06355 29.3857 5.88352C29.3857 5.71779 29.3794 5.69229 29.2391 5.65405C28.283 5.36083 27.6455 4.71702 27.3332 3.74174C27.295 3.61426 27.2822 3.61426 27.1866 3.61426C26.5428 3.62063 25.8799 3.62063 25.2105 3.62063C24.5731 3.62063 23.9038 3.62063 23.2345 3.61426C23.1325 3.61426 23.1198 3.61426 23.0879 3.73537C22.7819 4.71702 22.1381 5.36083 21.1883 5.65405C21.0481 5.69867 21.0353 5.71779 21.0353 5.88352C21.0417 8.39502 21.0417 10.9511 21.0417 13.4244C21.0417 14.3614 21.0417 15.2984 21.0417 16.2418C21.2011 16.1016 21.3604 15.955 21.5134 15.8084C21.9851 15.3686 22.4632 14.9223 23.0688 14.6291C22.0042 13.0164 22.0807 11.6013 23.2855 10.5177C23.8082 10.046 24.4966 9.78462 25.2105 9.78462C25.9245 9.78462 26.6129 10.046 27.1356 10.5113C27.6902 11.0085 28.0089 11.6204 28.0918 12.3344C28.1937 13.2331 27.9196 14.0363 27.2822 14.7184C27.3651 14.7694 27.4416 14.814 27.5181 14.8586C28.1364 15.2156 28.5316 15.7383 28.6272 16.3311C28.7228 16.9366 28.5188 17.555 28.0471 18.084C27.3906 18.8107 26.7595 19.582 26.1476 20.3278C25.8862 20.6465 25.6185 20.978 25.3508 21.2967C25.2297 21.4433 25.1149 21.5835 24.9874 21.7365H27.295ZM25.1914 11.2507C24.3883 11.2571 23.7572 11.8882 23.7572 12.6913C23.7572 13.4945 24.4074 14.1447 25.2042 14.1447H25.2169C26.0073 14.1383 26.6511 13.4881 26.6511 12.6913C26.6511 12.3025 26.5045 11.9392 26.2304 11.6651C25.9563 11.391 25.593 11.2443 25.1978 11.2443L25.1914 11.2507Z" fill="#E55025"/>
</g>
<defs>
<clipPath id="clip0_338_27">
<rect width="33" height="33" fill="white"/>
</clipPath>
</defs>
</svg>
