<svg width="33" height="33" fill="none" xmlns="http://www.w3.org/2000/svg"><path fill-rule="evenodd" clip-rule="evenodd" d="M15.82.093a3.59 3.59 0 00-.613.22C14.864.483 1.253 10.912.82 11.337c-1.11 1.09-1.09 2.91.042 4.059.645.654 1.685.973 2.563.787l.435-.092v6.154c0 5.914.005 6.163.123 6.393.072.141.228.3.38.385.252.142.293.145 2.551.145h2.294l.27.37c.713.981 2.109 2.108 3.285 2.653 1.312.607 2.218.805 3.704.809 1.221.003 1.82-.087 2.827-.422 1.607-.537 3.268-1.731 4.224-3.04l.272-.37h2.29c2.598 0 2.635-.007 2.913-.503l.145-.257V16.09l.435.092c.348.074.532.078.919.021 1.987-.293 3.095-2.428 2.186-4.211-.226-.444-.663-.849-2.132-1.975L29.138 8.94V4.855c0-3.965-.004-4.09-.13-4.338a.889.889 0 00-.385-.385c-.24-.122-.377-.13-2.387-.13-3.063 0-2.855-.183-2.902 2.57l-.032 1.89-2.612-2.005C19.254 1.354 17.934.383 17.756.3A2.923 2.923 0 0015.82.093zm1.078 1.948c.346.18 13.9 10.608 14.024 10.79.167.247.159.786-.015 1.02-.239.32-.453.436-.803.436-.274 0-.377-.039-.676-.254-.193-.14-2.999-2.287-6.234-4.771A1164.629 1164.629 0 0017.09 4.59c-.252-.174-.671-.243-.914-.15-.089.035-2.968 2.214-6.396 4.842-3.43 2.628-6.312 4.83-6.407 4.892-.241.158-.752.15-.975-.017-.267-.2-.413-.43-.45-.715-.068-.502.047-.628 1.81-1.982 8.518-6.538 12.184-9.337 12.336-9.42a.89.89 0 01.805 0zm10.305 2.643c0 2.295-.014 2.737-.087 2.694a34.287 34.287 0 01-.968-.73l-.88-.677V1.938h1.935v2.746zm-5.352 5.984l5.32 4.08.016 6.242.017 6.242h-2.438l.12-.386c.271-.87.348-1.425.348-2.518 0-.776-.032-1.21-.115-1.605-.404-1.894-1.142-3.26-2.485-4.592-1.317-1.307-2.696-2.05-4.49-2.422-.796-.165-2.483-.168-3.257-.007-1.847.385-3.26 1.153-4.579 2.487-1.057 1.07-1.695 2.088-2.122 3.389-.337 1.026-.421 1.578-.421 2.75 0 1.093.076 1.648.347 2.518l.12.386H5.794l.017-6.24.016-6.239 5.32-4.082c2.926-2.246 5.334-4.083 5.352-4.083.018 0 2.426 1.835 5.352 4.08zm-3.668 7.037c1.21.31 2.208.888 3.128 1.808.922.923 1.48 1.89 1.798 3.113a6.752 6.752 0 01-2.698 7.24c-.952.658-2.143 1.099-3.235 1.198l-.451.041.24-.131c.385-.209.501-.512.502-1.304v-.664l.419-.216c.249-.13.542-.353.725-.554 1.076-1.18 1.043-2.883-.078-4.01-.552-.554-1.278-.866-2.018-.866-.494 0-.983-.481-.983-.968 0-.492.477-.967.97-.967.293 0 .646.188.765.407.37.683.899.918 1.462.65.481-.228.625-.817.346-1.412-.197-.42-.841-1.059-1.27-1.26l-.339-.158v-.665c0-.539-.024-.713-.13-.92a1.024 1.024 0 00-.837-.514c-.32 0-.691.228-.837.515-.106.206-.13.38-.13.919v.664l-.339.155c-.415.19-1.056.825-1.265 1.253-.577 1.184-.375 2.457.537 3.369.54.54 1.297.868 2.008.868.518 0 .993.465.993.973 0 .463-.5.963-.962.963-.3 0-.695-.227-.817-.469-.319-.63-.965-.88-1.47-.568-.45.279-.564.817-.294 1.392.197.42.841 1.058 1.27 1.259l.339.158.002.679c.004.793.093 1.026.487 1.27l.252.157-.451-.043a7.448 7.448 0 01-2.188-.6c-3.802-1.782-5.117-6.36-2.84-9.891.391-.608 1.348-1.565 1.955-1.957a7.065 7.065 0 012.756-1.064c.661-.104 1.978-.03 2.678.15z" fill="#E55025"/></svg>