<svg width="33" height="33" fill="none" xmlns="http://www.w3.org/2000/svg"><path fill-rule="evenodd" clip-rule="evenodd" d="M6.353.13a.936.936 0 00-.371.382c-.128.251-.13.364-.13 9.572v9.318H3.288c-2.892 0-2.871-.003-3.162.49-.177.302-.166.76.025 1.015.14.186 15.704 11.892 15.977 12.016a.88.88 0 00.77-.025c.114-.059 3.737-2.758 8.051-5.998 8.268-6.209 8.053-6.033 8.05-6.54-.001-.299-.245-.695-.514-.839-.208-.11-.415-.12-2.789-.12h-2.564v-9.317c0-9.211-.002-9.32-.13-9.572a.889.889 0 00-.384-.384c-.252-.129-.357-.13-10.14-.127C6.764.003 6.59.006 6.353.13zm18.845 11.12c0 9.035.003 9.325.122 9.556.24.466.351.493 2.16.53l1.607.032-6.295 4.73-6.295 4.731L10.2 26.1l-6.298-4.731 1.604-.032c1.813-.037 1.92-.062 2.151-.515.128-.25.13-.366.13-9.571V1.932h17.411v9.318zM11.946 5.956a2.74 2.74 0 00-1.357.775c-1.145 1.146-1.145 2.923 0 4.068a2.873 2.873 0 003.313.56c.483-.231 1.097-.847 1.32-1.324.536-1.144.318-2.418-.565-3.305-.727-.73-1.735-1.018-2.711-.774zm7.97.025c-.183.09-.895 1.12-4.218 6.102-4.374 6.559-4.196 6.25-3.92 6.79.153.3.518.529.84.529.537 0 .381.207 4.586-6.096 2.153-3.229 3.962-5.961 4.02-6.073.411-.796-.489-1.657-1.308-1.252zm-6.84 1.947c.286.146.514.517.514.837 0 .493-.476.967-.972.967-.3 0-.698-.25-.84-.529-.238-.466-.089-.976.367-1.252.31-.187.596-.194.931-.023zm6.608 5.764c-.543.135-.95.367-1.359.775-1.144 1.14-1.143 2.923.002 4.067 1.146 1.146 2.915 1.146 4.068-.002 1.145-1.139 1.145-2.916 0-4.066-.727-.73-1.735-1.018-2.711-.774zm1.13 1.972c.286.146.514.517.514.837 0 .493-.476.967-.972.967-.3 0-.698-.25-.84-.529-.238-.466-.088-.976.368-1.252.308-.187.595-.194.93-.023z" fill="#E55025"/></svg>