<svg width="42" height="21" fill="none" xmlns="http://www.w3.org/2000/svg"><path fill-rule="evenodd" clip-rule="evenodd" d="M10.484.104a4.575 4.575 0 00-1.935 1.052c-.255.24-.835 1-1.34 1.754-1.326 1.985-1.571 2.177-2.955 2.324-.423.045-.917.123-1.097.173-.976.27-2.146 1.234-2.645 2.178C.06 8.442 0 8.879 0 11.357c0 2.446.056 2.878.487 3.731.295.586 1.008 1.376 1.564 1.733.224.144.654.345.954.446l.547.185.184.547c.713 2.119 2.965 3.393 5.105 2.887 1.455-.343 2.778-1.553 3.185-2.914l.148-.495h17.663l.148.495c.195.651.645 1.334 1.235 1.872 1.697 1.55 4.167 1.54 5.855-.025.599-.555.957-1.096 1.198-1.813l.182-.541.596-.201c1.977-.667 3.092-2.427 2.934-4.634-.185-2.604-1.623-4.695-3.705-5.388-.582-.193-.82-.223-2.093-.258-1.26-.035-1.487-.062-1.851-.225-.249-.111-1.817-1.307-3.912-2.985C28.501 2.234 26.73.844 26.49.686a5.48 5.48 0 00-.971-.477l-.534-.19L17.97.004c-5.78-.013-7.099.005-7.485.1zM24.58 1.79c.267.05.635.17.816.271.18.1 1.909 1.449 3.84 2.997 1.933 1.549 3.686 2.926 3.898 3.06.704.447 1.294.574 2.97.64 1.4.054 1.555.075 1.989.275 1.127.52 1.926 1.836 2.11 3.478.127 1.138-.137 2.009-.775 2.559-.538.463-1.108.634-1.108.332 0-.06-.126-.37-.28-.69-.312-.654-1-1.417-1.652-1.83-1.278-.812-3.23-.812-4.508 0-.884.562-1.646 1.553-1.934 2.52l-.105.349H12.17l-.105-.35c-.289-.966-1.05-1.957-1.934-2.519-1.278-.812-3.23-.812-4.508 0-.651.413-1.34 1.176-1.653 1.83-.153.32-.279.63-.279.69 0 .333-.66.08-1.162-.445-.723-.757-.833-1.302-.795-3.932l.029-1.974.268-.545c.482-.979 1.165-1.394 2.537-1.538 1.003-.106 1.584-.31 2.225-.783.59-.435.839-.74 1.885-2.312 1.03-1.551 1.467-1.931 2.392-2.088.606-.103 12.945-.098 13.512.005zM10.877 3.684c-.303.239-2.099 3.834-2.099 4.203 0 .148.06.356.134.461.284.406.428.42 4.151.42 2.125 0 3.588-.033 3.774-.085.393-.11.64-.424.64-.818 0-.394-.247-.71-.64-.819-.18-.05-1.415-.084-3.03-.085H11.08l.572-1.16c.61-1.234.692-1.605.427-1.932-.316-.39-.838-.471-1.202-.185zm8.658.08l-.253.252v4.19l.233.233c.155.155.354.25.595.286.2.029 2.328.041 4.73.027l4.369-.025.259-.259c.366-.367.366-.84 0-1.207l-.26-.259-4.096-.023-4.096-.024-.026-1.483-.026-1.483-.268-.24c-.378-.337-.816-.332-1.161.014zm1.943 6.858a.837.837 0 00-.135 1.387c.243.204.282.21 1.44.21h1.19l.24-.24c.444-.445.298-1.198-.27-1.397-.394-.137-2.192-.108-2.465.04zM8.782 14.185c.565.215.936.514 1.264 1.02 1.032 1.593.141 3.637-1.742 3.994-1.424.27-2.853-.811-3.028-2.293-.096-.81.344-1.85.99-2.344.691-.528 1.716-.681 2.516-.377zm26.26 0c.565.215.936.514 1.264 1.02 1.032 1.593.141 3.637-1.742 3.994-1.424.27-2.853-.811-3.028-2.293-.096-.81.344-1.85.99-2.344.691-.528 1.716-.681 2.516-.377z" fill="#E55025"/></svg>