<svg width="33" height="34" viewBox="0 0 33 34" fill="none" xmlns="http://www.w3.org/2000/svg">
<path fill-rule="evenodd" clip-rule="evenodd" d="M27.1305 3.50462L27.1547 1.00024C25.1955 1.00024 23.2443 1.00024 21.2771 0.992188C21.2797 1.45384 21.2815 1.91549 21.2833 2.37714C21.2869 3.30055 21.2905 4.22396 21.3013 5.14736C21.3093 5.38089 21.2287 5.50973 21.0352 5.63858C20.4177 6.04783 19.8002 6.45908 19.1824 6.87058L19.1824 6.8706L19.1824 6.87061L19.1823 6.87063L19.1823 6.87065L19.1823 6.87067L19.1822 6.87069C18.0495 7.6251 16.9157 8.3803 15.7784 9.12538C15.5607 9.27033 15.4801 9.42333 15.4882 9.67296C15.5003 10.3494 15.4987 11.0258 15.4972 11.7022C15.4967 11.9277 15.4962 12.1532 15.4962 12.3787C15.4962 12.4843 15.5033 12.59 15.5108 12.7023L15.5123 12.7249H32.9919V12.3948C32.9919 12.1629 32.9914 11.9316 32.9909 11.7006C32.9894 11.0086 32.9879 10.3189 33 9.62465C33 9.38307 32.9113 9.25423 32.7259 9.13344C31.9964 8.65653 31.2696 8.17827 30.5433 7.70032C29.5037 7.01615 28.465 6.33262 27.4207 5.65468C27.195 5.50168 27.1143 5.34868 27.1224 5.08294C27.1397 4.70882 27.1364 4.33058 27.1331 3.95411V3.95401V3.95382V3.95363V3.95344V3.95326V3.95307V3.95288C27.1318 3.80306 27.1305 3.65351 27.1305 3.50462ZM30.7425 10.1561C30.9763 10.3091 31.1134 10.4621 31.0086 10.7842H17.4796C17.399 10.5104 17.4635 10.3333 17.7134 10.1642C18.6717 9.54109 19.6237 8.90874 20.5753 8.27668L20.5756 8.27649L20.5757 8.27647L20.5757 8.27646L20.5757 8.27644L20.5757 8.27643L20.5758 8.27642C21.1613 7.8875 21.7467 7.49869 22.3333 7.11222C22.4864 7.00753 22.688 6.94311 22.8654 6.94311C23.7603 6.927 24.6472 6.927 25.5421 6.94311C25.7356 6.95116 25.9453 7.01558 26.1065 7.12027C26.8804 7.62348 27.6523 8.13071 28.4241 8.63795L28.4245 8.63817C29.1965 9.1455 29.9685 9.65282 30.7425 10.1561ZM23.2846 4.97021V2.94899H25.1471V4.97021H23.2846ZM0.0677286 16.6397C0.0451524 16.6448 0.0225762 16.65 0 16.6548C0 22.4286 0 28.2104 0.00806254 33.9922H32.9677V16.5984H32.6775H0.338627C0.248327 16.5984 0.158028 16.619 0.0677286 16.6397ZM31.0085 32.0354H17.4796V18.5552H31.0085V32.0354ZM15.4801 18.5472V24.3048H2.00757V18.5472H15.4801ZM15.472 26.2777V32.0354H2.00757V26.2777H15.472ZM19.3904 22.372H29.0413V30.1025H19.3904V22.372ZM27.0901 24.3288H21.3496V28.1618H27.0901V24.3288ZM21.3012 19.4488H19.3904V21.4056H21.3012V19.4488ZM25.1713 19.4571V21.3978H23.2524V19.4571H25.1713ZM27.1144 19.4649V21.4056H29.0332V19.4649H27.1144ZM4.91815 21.3898V19.5055H12.6179V21.3898H4.91815ZM4.91815 27.2277V29.1201H12.6179V27.2277H4.91815Z" fill="#E55025"/>
</svg>
