<svg width="33" height="33" viewBox="0 0 33 33" fill="none" xmlns="http://www.w3.org/2000/svg">
<path fill-rule="evenodd" clip-rule="evenodd" d="M15.8193 0.0925682C15.6405 0.136058 15.3649 0.23536 15.2068 0.313306C14.8638 0.482295 1.25287 10.9117 0.819674 11.3374C-0.289555 12.4275 -0.270597 14.2478 0.862039 15.3958C1.50725 16.0497 2.54742 16.3693 3.42522 16.1833L3.86048 16.0911V22.2447C3.86048 28.1594 3.86525 28.4077 3.9828 28.6383C4.05457 28.7791 4.21139 28.9379 4.36234 29.0229C4.61544 29.1652 4.65645 29.1675 6.91405 29.1675H9.20846L9.47813 29.5385C10.1908 30.5191 11.5867 31.6463 12.7627 32.1908C14.0752 32.7985 14.9806 32.9963 16.4668 32.9999C17.688 33.0029 18.2865 32.9135 19.2937 32.5776C20.9013 32.0414 22.562 30.8468 23.5184 29.5385L23.7896 29.1675H26.0793C28.678 29.1675 28.7145 29.1612 28.9931 28.6653L29.1376 28.4079V22.2495V16.0911L29.5729 16.1833C29.9208 16.2571 30.1051 16.2612 30.4918 16.2041C32.4787 15.9106 33.5873 13.7756 32.6785 11.9929C32.452 11.5486 32.0149 11.144 30.5459 10.0181L29.1379 8.93916L29.1378 4.85542C29.1376 0.890088 29.1339 0.76433 29.0078 0.517073C28.9243 0.353117 28.7873 0.216068 28.6234 0.132444C28.3836 0.0100417 28.2465 0.00255689 26.2359 0.00255689C23.1733 0.00255689 23.3811 -0.181402 23.3342 2.5714L23.302 4.46273L20.6904 2.45719C19.2541 1.35415 17.9338 0.382992 17.7565 0.299046C17.1457 0.00991263 16.46 -0.0631933 15.8193 0.0925682ZM16.8976 2.04107C17.2436 2.22013 30.7988 12.6487 30.9217 12.8305C31.0889 13.0776 31.081 13.617 30.9069 13.8504C30.6681 14.1705 30.4536 14.2873 30.1044 14.2873C29.8304 14.2873 29.727 14.2483 29.4284 14.0328C29.2346 13.8929 26.4292 11.746 23.1942 9.26179C19.9592 6.7776 17.212 4.67566 17.0893 4.59088C16.8371 4.41653 16.4175 4.34814 16.1754 4.44189C16.086 4.47647 13.2075 6.65507 9.77868 9.28321C6.34989 11.9113 3.46707 14.1124 3.37247 14.1745C3.13066 14.3329 2.61996 14.3243 2.39724 14.1579C2.13002 13.9583 1.98436 13.7274 1.94625 13.4431C1.87893 12.9409 1.99371 12.8153 3.75737 11.4615C12.2753 4.92298 15.9406 2.12398 16.0929 2.04139C16.3291 1.91318 16.6502 1.91312 16.8976 2.04107ZM27.2032 4.68379C27.2032 6.97943 27.1888 7.42078 27.1155 7.37768C27.0674 7.34929 26.6322 7.02118 26.1484 6.64855L25.2689 5.97105L25.2687 3.95467L25.2687 1.93828H26.2359H27.2032V4.68379ZM21.8511 10.6678L27.1709 14.7488L27.1874 20.9903L27.2038 27.2318H25.9851H24.7664L24.8862 26.8463C25.1571 25.9756 25.2335 25.4209 25.2335 24.3282C25.2335 23.5516 25.2025 23.1173 25.1186 22.7232C24.7154 20.8288 23.9766 19.4633 22.6341 18.131C21.3171 16.8242 19.938 16.0803 18.1434 15.7089C17.3479 15.5443 15.6614 15.5409 14.887 15.7023C13.0402 16.0871 11.6266 16.8549 10.308 18.1892C9.25083 19.259 8.61336 20.277 8.18622 21.5777C7.84911 22.6043 7.76457 23.1557 7.76457 24.3282C7.76457 25.4209 7.84105 25.9756 8.11188 26.8463L8.23175 27.2318H7.01303H5.79431L5.81075 20.9925L5.82719 14.7533L11.147 10.6708C14.0729 8.42549 16.4813 6.58803 16.4991 6.58758C16.5168 6.58713 18.9252 8.42323 21.8511 10.6678ZM18.1833 17.7045C19.3932 18.0157 20.391 18.5928 21.3109 19.5133C22.2328 20.4358 22.7911 21.4023 23.1089 22.6258C23.8187 25.3586 22.7388 28.2563 20.4107 29.866C19.4591 30.524 18.2684 30.965 17.1761 31.0641L16.7247 31.1051L16.9658 30.9739C17.35 30.765 17.4662 30.4621 17.4666 29.6702L17.4667 29.0062L17.8856 28.7895C18.1349 28.6605 18.4284 28.4366 18.6108 28.2364C19.6867 27.0552 19.6537 25.3532 18.5331 24.2268C17.9813 23.6721 17.2552 23.3603 16.5152 23.3603C16.0209 23.3603 15.5318 22.879 15.5318 22.3925C15.5318 21.8998 16.0085 21.4246 16.5029 21.4246C16.795 21.4246 17.1476 21.6126 17.2667 21.8319C17.6374 22.515 18.1656 22.7499 18.7291 22.4824C19.2104 22.2539 19.3544 21.6653 19.0749 21.0697C18.8778 20.6498 18.2336 20.011 17.8048 19.8104L17.4663 19.652V18.9871C17.4663 18.4482 17.4417 18.2741 17.3365 18.0677C17.1905 17.7814 16.819 17.5532 16.4991 17.5532C16.1791 17.5532 15.8076 17.7814 15.6616 18.0677C15.5564 18.2741 15.5318 18.4482 15.5318 18.9866V19.651L15.1933 19.8062C14.7777 19.9967 14.1369 20.6315 13.9283 21.0591C13.3508 22.2435 13.5535 23.5158 14.465 24.4278C15.0056 24.9687 15.7624 25.2961 16.4726 25.2961C16.9911 25.2961 17.4663 25.7612 17.4663 26.2687C17.4663 26.7319 16.9667 27.2318 16.5038 27.2318C16.2047 27.2318 15.8088 27.0048 15.6868 26.7633C15.368 26.1322 14.722 25.8823 14.2175 26.1949C13.7673 26.4739 13.6535 27.0119 13.9232 27.5867C14.1203 28.0066 14.7645 28.6454 15.1933 28.846L15.5318 29.0044L15.5345 29.6828C15.5377 30.4761 15.6267 30.7087 16.0214 30.9539L16.2734 31.1105L15.822 31.0668C15.1447 31.0014 14.25 30.7562 13.6339 30.4673C9.83182 28.6845 8.51741 24.1066 10.7937 20.5755C11.1853 19.968 12.1417 19.011 12.7487 18.6192C13.6086 18.0642 14.5267 17.7099 15.5051 17.5555C16.1662 17.4512 17.4833 17.5244 18.1833 17.7045Z" fill="#E55025"/>
</svg>
