<svg width="33" height="33" viewBox="0 0 33 33" fill="none" xmlns="http://www.w3.org/2000/svg">
<path fill-rule="evenodd" clip-rule="evenodd" d="M6.3525 0.130719C6.20516 0.208528 6.06097 0.356799 5.98172 0.512095C5.85358 0.763252 5.85204 0.876454 5.85204 10.084V19.4018H3.28773C0.396107 19.4018 0.416677 19.3987 0.126302 19.892C-0.051418 20.194 -0.0401976 20.6514 0.151193 20.9066C0.290609 21.0926 15.8547 32.7992 16.1276 32.9234C16.3703 33.0339 16.6523 33.0244 16.8983 32.8976C17.0118 32.839 20.6347 30.1402 24.9493 26.9002C33.2172 20.6914 33.0016 20.8666 32.9991 20.3591C32.9976 20.061 32.7545 19.6645 32.4853 19.5214C32.2773 19.4107 32.0696 19.4018 29.6963 19.4018H27.132V10.084C27.132 0.872715 27.1305 0.763316 27.0022 0.511837C26.9186 0.348031 26.7817 0.211107 26.6178 0.12756C26.366 -0.000854756 26.261 -0.00220853 16.4785 0.00062794C6.76424 0.00346441 6.58942 0.00565622 6.3525 0.130719ZM25.1975 11.2496C25.1975 20.2855 25.2012 20.5746 25.3203 20.8065C25.5594 21.272 25.6714 21.2995 27.4808 21.3358L29.0871 21.368L22.7923 26.0986L16.4974 30.8292L10.1997 26.0986L3.90195 21.368L5.50569 21.3358C7.31907 21.2994 7.42611 21.2738 7.65697 20.8213C7.78503 20.5704 7.78658 20.4553 7.78658 11.2496V1.93175H16.492H25.1975V11.2496ZM11.9459 5.95574C11.4021 6.09176 10.9961 6.32377 10.5888 6.73125C9.4439 7.87674 9.4439 9.65398 10.5888 10.7986C11.4725 11.682 12.774 11.9025 13.9021 11.3599C14.3853 11.1276 14.9986 10.5119 15.2221 10.0348C15.7581 8.89071 15.5403 7.61681 14.6571 6.72977C13.9299 5.99944 12.9218 5.71167 11.9459 5.95574ZM19.9155 5.98107C19.7328 6.07139 19.021 7.10128 15.6984 12.0829C11.3239 18.6417 11.5023 18.3327 11.7784 18.8739C11.9308 19.1725 12.2956 19.4018 12.6182 19.4018C13.1554 19.4018 12.9991 19.6095 17.2036 13.306C19.357 10.0774 21.1661 7.3447 21.2237 7.23337C21.6354 6.43736 20.7355 5.57578 19.9155 5.98107ZM13.076 7.92786C13.3621 8.07381 13.5902 8.44519 13.5902 8.76507C13.5902 9.25778 13.1135 9.73205 12.6182 9.73205C12.3183 9.73205 11.9199 9.48134 11.778 9.2033C11.5399 8.73664 11.6893 8.22717 12.1453 7.95119C12.4541 7.76437 12.7413 7.75715 13.076 7.92786ZM19.684 13.6916C19.1411 13.8274 18.7346 14.0593 18.3252 14.4671C17.1809 15.6067 17.1817 17.3895 18.327 18.5344C19.4734 19.6805 21.2419 19.6797 22.3952 18.5325C23.5402 17.3935 23.5402 15.6155 22.3952 14.4656C21.668 13.7353 20.6599 13.4475 19.684 13.6916ZM20.8142 15.6637C21.1003 15.8096 21.3284 16.181 21.3284 16.5009C21.3284 16.9936 20.8517 17.4679 20.3563 17.4679C20.0564 17.4679 19.658 17.2172 19.5162 16.9391C19.278 16.4725 19.4275 15.963 19.8835 15.687C20.1922 15.5002 20.4794 15.493 20.8142 15.6637Z" fill="#E55025"/>
</svg>
