<svg width="42" height="21" viewBox="0 0 42 21" fill="none" xmlns="http://www.w3.org/2000/svg">
<path fill-rule="evenodd" clip-rule="evenodd" d="M10.4836 0.103735C9.79913 0.271832 9.06082 0.673343 8.54867 1.15611C8.29386 1.39626 7.71442 2.15533 7.20974 2.91004C5.88255 4.89476 5.63759 5.08742 4.25378 5.23432C3.83107 5.27918 3.33747 5.3569 3.15693 5.40702C2.18113 5.67781 1.01142 6.64113 0.512478 7.58481C0.059413 8.44181 0 8.87922 0 11.3565C0 13.8031 0.0562126 14.2346 0.486547 15.0881C0.781971 15.6739 1.49534 16.4643 2.0509 16.8212C2.27509 16.9652 2.70452 17.166 3.00512 17.2674L3.55173 17.4518L3.73588 17.999C4.44867 20.1178 6.70054 21.3916 8.84056 20.8864C10.2963 20.5429 11.6186 19.333 12.0257 17.9722L12.1738 17.4773H21.0055H29.8371L29.9852 17.9722C30.1799 18.6231 30.6302 19.3059 31.2197 19.8443C32.9175 21.3947 35.3868 21.3841 37.075 19.8192C37.674 19.264 38.0317 18.7225 38.2729 18.0055L38.4548 17.4647L39.0513 17.2636C41.0281 16.5971 42.1426 14.8373 41.9853 12.6301C41.7999 10.0257 40.3621 7.93538 38.2796 7.24221C37.698 7.04864 37.4591 7.01914 36.187 6.98398C34.9267 6.94906 34.7001 6.92154 34.3359 6.75903C34.0872 6.64803 32.5194 5.45155 30.4242 3.77394C28.5009 2.23395 26.7305 0.844563 26.4898 0.686407C26.2492 0.52825 25.8123 0.31324 25.5189 0.208652L24.9855 0.0185359L17.9692 0.00350095C12.1885 -0.00890506 10.8702 0.00875923 10.4836 0.103735ZM24.5806 1.79136C24.8484 1.84008 25.2156 1.96193 25.3965 2.06208C25.5775 2.16223 27.306 3.51103 29.2378 5.05932C31.1695 6.60769 32.9233 7.98451 33.135 8.11901C33.8393 8.56644 34.4286 8.6933 36.1049 8.75845C37.5046 8.81284 37.6597 8.83436 38.0938 9.03434C39.2211 9.55383 40.0196 10.8703 40.2036 12.5121C40.331 13.6498 40.0674 14.5208 39.4291 15.0706C38.8913 15.5341 38.3206 15.7052 38.3206 15.4031C38.3206 15.3439 38.195 15.0332 38.0416 14.7127C37.7286 14.0587 37.0403 13.2964 36.3894 12.883C35.1115 12.0712 33.1593 12.0712 31.8814 12.883C30.9967 13.445 30.2354 14.4364 29.9466 15.4028L29.8422 15.752H21.0055H12.1688L12.0644 15.4028C11.7755 14.4364 11.0142 13.445 10.1295 12.883C8.85164 12.0712 6.89938 12.0712 5.62151 12.883C4.97067 13.2964 4.28233 14.0587 3.96935 14.7127C3.81589 15.0332 3.69034 15.3439 3.69034 15.4031C3.69034 15.7365 3.02957 15.4834 2.52793 14.9579C1.80529 14.2007 1.69524 13.6564 1.73332 11.026L1.76188 9.05233L2.0303 8.50663C2.5116 7.52795 3.19534 7.11338 4.56684 6.96878C5.57046 6.86304 6.15073 6.65888 6.79245 6.18597C7.38281 5.75085 7.63072 5.44662 8.67668 3.87368C9.70788 2.32293 10.1437 1.9427 11.0694 1.78578C11.6749 1.68324 24.0139 1.68825 24.5806 1.79136ZM10.8775 3.68398C10.5741 3.9229 8.77819 7.51842 8.77819 7.88683C8.77819 8.03529 8.83843 8.2429 8.91204 8.34807C9.19597 8.75401 9.33958 8.76847 13.0633 8.76798C15.1882 8.76773 16.6509 8.73479 16.8371 8.68303C17.2304 8.57368 17.4768 8.25851 17.4768 7.86472C17.4768 7.47094 17.2304 7.15577 16.8371 7.04642C16.657 6.9963 15.422 6.96171 13.8065 6.96147L11.0799 6.96097L11.6523 5.80097C12.2615 4.5667 12.3436 4.19558 12.0794 3.86908C11.7633 3.47842 11.2407 3.3979 10.8775 3.68398ZM19.5347 3.7631L19.2822 4.0159V6.11096V8.20601L19.515 8.4391C19.6699 8.59413 19.8691 8.68985 20.1099 8.72485C20.3091 8.75385 22.4378 8.76626 24.8403 8.75245L29.2086 8.72739L29.4676 8.4681C29.8338 8.10142 29.8338 7.62802 29.4676 7.26135L29.2086 7.00205L25.1122 6.97864L21.0157 6.95514L20.9901 5.47225L20.9644 3.98936L20.6964 3.74987C20.3185 3.41203 19.8803 3.41704 19.5347 3.7631ZM21.4784 10.6224C20.951 10.9089 20.8815 11.6201 21.3428 12.0088C21.5856 12.2133 21.6254 12.2192 22.7824 12.2192H23.9723L24.2122 11.979C24.6566 11.5341 24.5108 10.7806 23.9421 10.5821C23.5492 10.445 21.7508 10.4744 21.4784 10.6224ZM8.78213 14.1849C9.34697 14.3998 9.7183 14.6995 10.0456 15.2046C11.0782 16.7978 10.1873 18.8417 8.30437 19.1991C6.8801 19.4696 5.45098 18.3877 5.2757 16.9062C5.17993 16.0967 5.62003 15.0555 6.26668 14.5618C6.95748 14.0342 7.98235 13.8807 8.78213 14.1849ZM35.042 14.1849C35.6069 14.3998 35.9782 14.6995 36.3056 15.2046C37.3381 16.7978 36.4472 18.8417 34.5643 19.1991C33.14 19.4696 31.7109 18.3877 31.5356 16.9062C31.4398 16.0967 31.8799 15.0555 32.5266 14.5618C33.2174 14.0342 34.2423 13.8807 35.042 14.1849Z" fill="#E55025"/>
</svg>
