<svg width="24" height="24" fill="none" xmlns="http://www.w3.org/2000/svg"><path fill-rule="evenodd" clip-rule="evenodd" d="M3 .065C2.44.187 2.19.36 1.197 1.31.068 2.392 0 2.48 0 2.904c0 .264.02.34.128.496.254.363.646.509 1.066.396.167-.046.311-.159.76-.598l.555-.543.013 7.852.012 7.851.131.423a3.86 3.86 0 002.544 2.542l.423.131 7.831.013 7.832.012-.543.559c-.433.445-.553.599-.597.76a.943.943 0 001.174 1.166c.18-.049.344-.19 1.211-1.049.923-.912 1.018-1.022 1.188-1.367.354-.721.352-1.412-.007-2.128-.161-.322-.282-.461-1.181-1.351-.867-.857-1.03-1-1.211-1.048a.977.977 0 00-1.078.407c-.096.141-.117.23-.117.481 0 .385.044.454.746 1.165l.52.529-7.766-.013-7.768-.012-.252-.103c-.525-.215-.889-.575-1.093-1.081l-.11-.27-.012-7.786-.012-7.786.528.52c.712.701.782.746 1.163.745.253 0 .336-.022.492-.128a.944.944 0 00.401-1.067c-.048-.187-.169-.322-1.049-1.185C4.832.37 4.58.192 3.978.064a1.987 1.987 0 00-.979.001zM8.78.03c-.216.054-.452.266-.573.512-.215.44-.088.889.335 1.178l.187.128 6.383.024 6.383.023.179.111a1.2 1.2 0 01.305.302l.126.19.023 6.406.024 6.406.128.187a.928.928 0 00.685.43c.325.039.69-.134.882-.419l.135-.198.012-6.367c.014-7.076.028-6.729-.3-7.4A2.99 2.99 0 0022.457.307c-.664-.325-.323-.31-7.298-.305-3.459.002-6.33.015-6.38.028zm8.801 5.082c-.855.168-1.568.923-1.705 1.808-.063.408-.027.609.155.86a.933.933 0 001.494 0c.078-.109.155-.274.17-.367.054-.342.073-.386.184-.436.153-.07.324-.019.398.119.054.1.046.141-.07.355-.204.373-.839 1.13-1.583 1.886-.566.576-.686.723-.736.901a.942.942 0 00.766 1.18c.107.015.817.022 1.579.014 1.363-.015 1.387-.017 1.564-.127a1.21 1.21 0 00.305-.301c.104-.158.125-.243.125-.499 0-.55-.32-.884-.89-.93-.168-.013-.306-.034-.306-.046 0-.012.103-.152.228-.31.527-.664.86-1.31.922-1.79a2.251 2.251 0 00-.018-.533 2.19 2.19 0 00-2.582-1.784zM6.885 8.395c-.217.066-.51.375-.572.602-.034.128-.046 1.186-.037 3.324l.013 3.136.126.19c.194.293.423.413.789.413.366 0 .595-.12.79-.412l.125-.19.024-2.373c.023-2.36.024-2.373.128-2.519a.714.714 0 011.151 0c.105.146.105.159.129 2.52l.023 2.371.126.19c.194.293.423.413.79.413.365 0 .595-.12.788-.412l.126-.19.024-2.373c.023-2.36.024-2.373.128-2.519.304-.425.982-.372 1.204.095.067.14.076.431.076 2.41v2.251l.13.25a.732.732 0 00.381.381c.32.167.535.167.855 0a.732.732 0 00.38-.38l.131-.25v-2.285c0-1.426-.019-2.389-.05-2.563-.178-.976-1.053-1.847-2.053-2.04-.599-.115-1.3.019-1.84.351l-.279.173-.312-.189c-.46-.277-.747-.351-1.356-.35-.374 0-.578.022-.741.082-.22.08-.228.08-.386-.018-.187-.115-.584-.159-.81-.09z" fill="#555"/></svg>