<svg width="45" height="46" viewBox="0 0 45 46" fill="none" xmlns="http://www.w3.org/2000/svg">
<path fill-rule="evenodd" clip-rule="evenodd" d="M27.3405 0.286934L27.0561 0.573771V3.18447V5.79508L26.8218 6.03129C26.5661 6.28925 26.1784 6.33439 25.8563 6.14391C25.7477 6.07961 24.2577 4.82493 22.5454 3.35571C20.833 1.88658 19.322 0.642304 19.1876 0.590808C19.0298 0.530361 18.857 0.530072 18.7003 0.590231C18.5668 0.641342 14.3046 4.2246 9.2288 8.55286L0 16.4224L0.677574 16.4504C1.25999 16.4745 1.38703 16.5128 1.58279 16.7228L1.81052 16.9673L1.85825 28.4223L1.90597 39.8773L2.13132 40.0614C2.34989 40.2398 2.65198 40.2453 12.2725 40.2453H22.1883V35.5593C22.1883 31.0186 22.1944 30.8604 22.3857 30.462C23.0294 29.1211 25.5495 28.2138 29.3229 27.9646L30.3013 27.9L30.3018 25.8188C30.3021 24.6638 30.3469 23.5759 30.4024 23.3742C30.7322 22.1767 32.8341 21.1006 35.5213 20.7533L36.0169 20.6892L36.0463 18.828C36.0749 17.0186 36.0821 16.96 36.3035 16.7226C36.4986 16.5134 36.6271 16.4745 37.2017 16.4504L37.8724 16.4224L34.9956 13.9711C32.9926 12.2641 32.0894 11.434 32.0214 11.2375C31.9596 11.0587 31.9238 9.04183 31.9238 5.73454C31.9238 0.739328 31.9159 0.503891 31.7415 0.286453C31.5622 0.062854 31.5278 0.0587151 29.5922 0.0296464L27.625 0L27.3405 0.286934ZM36.9825 22.2518C33.822 22.4201 31.7035 23.1831 32.023 24.0379C32.3677 24.9596 36.3602 25.6662 39.8805 25.4285C43.4514 25.1875 45.445 24.4369 44.869 23.5504C44.28 22.6439 40.6967 22.0539 36.9825 22.2518ZM31.9794 25.9758C31.9489 26.0066 31.9238 26.2844 31.9238 26.5933C31.9238 27.2228 32.0395 27.3995 32.6596 27.7172C35.1696 29.0031 40.9833 29.104 43.8252 27.9109C44.9191 27.4517 45 27.36 45 26.5789V25.9208L44.1171 26.2388C42.235 26.9166 39.9993 27.2212 37.6506 27.1195C35.7295 27.0364 33.7038 26.6324 32.385 26.0693C32.1924 25.9871 32.0098 25.945 31.9794 25.9758ZM44.2364 29.4813C42.6515 30.0507 40.5583 30.4274 38.9804 30.4274C38.3684 30.4274 38.3054 30.4447 38.3669 30.5958C38.4046 30.6884 38.4582 31.0622 38.4862 31.4262L38.537 32.0882L39.5493 32.0231C41.5132 31.8969 43.2031 31.531 44.2257 31.0103C44.9647 30.6342 45.0143 30.5569 44.9807 29.8345L44.9523 29.2242L44.2364 29.4813ZM28.7741 29.622C26.2293 29.8122 24.2722 30.3738 23.8676 31.0299C23.5874 31.4841 24.353 32.0174 25.822 32.3914C28.2463 33.0085 32.7225 32.9875 35.0567 32.3481C36.2755 32.0143 36.9338 31.5432 36.8161 31.089C36.6881 30.5952 35.3821 30.0893 33.5002 29.8043C32.5403 29.6591 29.7296 29.5506 28.7741 29.622ZM43.9501 32.8569C42.7728 33.2798 41.12 33.5971 39.7266 33.668L38.5096 33.7298V34.5476V35.3653L39.5834 35.3013C41.7029 35.1749 43.8103 34.6642 44.6036 34.0847C44.9983 33.7963 45 33.7924 45 33.1701C45 32.7286 44.965 32.548 44.8807 32.5553C44.8151 32.561 44.3963 32.6967 43.9501 32.8569ZM23.8109 33.9743C23.8109 34.6149 23.8256 34.66 24.0978 34.8556C25.1782 35.6313 27.5505 36.1179 30.2535 36.118C32.7529 36.1182 34.7486 35.7929 35.9411 35.1908C36.7895 34.7625 36.8871 34.6308 36.8871 33.9136C36.8871 33.3626 36.8686 33.3018 36.72 33.3613C35.832 33.7172 34.4201 34.119 33.489 34.2808C31.877 34.5611 28.8165 34.5635 27.23 34.2858C26.3393 34.1299 24.6655 33.6545 23.9302 33.3486C23.8415 33.3117 23.8109 33.4717 23.8109 33.9743ZM43.8094 36.1782C42.5089 36.632 41.2751 36.8648 39.7743 36.9395L38.5096 37.0023V37.8057V38.609H39.086C41.1737 38.609 44.0748 37.9118 44.7843 37.2398C44.9642 37.0693 45 36.9343 45 36.4265C45 35.996 44.9651 35.8218 44.8807 35.8319C44.8151 35.8397 44.333 35.9955 43.8094 36.1782ZM23.8109 37.2644V37.9395L24.2639 38.2292C25.6384 39.1083 28.9836 39.6181 31.8248 39.3816C33.9748 39.2027 36.0167 38.6478 36.6246 38.0775C36.8593 37.8573 36.8871 37.7646 36.8871 37.2014C36.8871 36.7353 36.856 36.5845 36.7678 36.6213C36.2394 36.8411 34.5051 37.3704 33.9075 37.4942C30.9232 38.1126 27.1092 37.8414 24.4165 36.8192L23.8109 36.5893V37.2644ZM23.8109 40.5278C23.8109 41.2908 23.854 41.3469 24.7752 41.7816C27.1404 42.8978 32.3689 43.0282 35.2224 42.0422C36.6586 41.5459 36.8871 41.3373 36.8871 40.5228C36.8871 39.8381 37.0473 39.8542 35.4076 40.3738C33.6171 40.9412 32.7383 41.0569 30.2535 41.0525C28.2506 41.049 27.9521 41.0261 26.8468 40.7919C26.1804 40.6507 25.2248 40.3872 24.7231 40.2064L23.8109 39.8776V40.5278ZM23.8109 43.8067C23.8109 44.4452 23.823 44.48 24.1267 44.7136C25.5397 45.8005 30.0613 46.3274 33.3078 45.7836C34.9931 45.5012 36.5596 44.9178 36.788 44.4873C36.9046 44.2676 36.9224 43.2292 36.8096 43.2292C36.7669 43.2292 36.3672 43.3536 35.9211 43.5056C33.8657 44.2063 32.1607 44.4359 29.6331 44.3524C27.4787 44.2813 25.68 43.9329 24.1688 43.2941L23.8109 43.1428V43.8067Z" fill="white"/>
</svg>
