<svg width="56" height="45" viewBox="0 0 56 45" fill="none" xmlns="http://www.w3.org/2000/svg">
<path fill-rule="evenodd" clip-rule="evenodd" d="M15.9424 0.656076C15.877 1.2228 15.0001 10.7963 15.0001 10.9432C15.0001 10.9728 16.3501 10.9971 18.0001 10.9971H21.0001L21.0043 20.5258C21.0081 29.8024 21.0141 30.0376 21.2295 29.4146C21.478 28.696 21.9563 28.0692 22.5804 27.6444L23.0001 27.3588V19.1779V10.9971H26.0002C27.6502 10.9971 29.0002 10.9728 29.0002 10.9432C29.0002 10.7963 28.1233 1.2228 28.0579 0.656076L27.9822 0H22.0001H16.0181L15.9424 0.656076ZM8.89168 12.1477C8.61368 12.5158 8.24118 13.1339 8.0638 13.521C7.7498 14.2067 7.38155 15.6504 7.37717 16.213C7.37505 16.4851 7.3578 16.4815 6.71879 16.0754C5.80479 15.4943 4.71215 15.1138 3.71877 15.0305L2.87477 14.9598L2.94714 15.5715C3.30527 18.6015 5.38278 21.0402 8.25005 21.7964C8.93443 21.9769 8.92856 21.9778 6.96879 21.9859C5.48066 21.9922 5.00003 22.0323 5.00003 22.1505C5.00003 22.2785 6.26041 26.7912 6.55779 27.7279L6.64192 27.9926H3.3209H0V36.4903V44.9881H1.00001H2.00001V42.4888V39.9894H9.50006H17.0001V42.4888V44.9881H18.0001H19.0001V36.4923V27.9966L15.64 27.9634L12.2798 27.9301L13.1366 24.9934C13.6078 23.3782 13.9948 22.0425 13.9967 22.0254C13.9986 22.0083 13.1141 21.9902 12.0313 21.9853L10.0626 21.9764L10.8126 21.7605C12.5788 21.2523 14.1967 19.989 15.0617 18.4424C15.5072 17.646 16.0001 16.0128 16.0001 15.3328V14.9598L15.1562 15.0305C14.1601 15.114 13.1911 15.4535 12.2465 16.05L11.5626 16.4818L11.4751 15.7272C11.3068 14.2755 10.4797 12.4576 9.64269 11.7004C9.40406 11.4845 9.38331 11.4968 8.89168 12.1477ZM31.8275 16.1325C31.0477 16.3192 29.9152 16.9866 29.3642 17.5842C29.0836 17.8886 28.6758 18.5135 28.4583 18.9725L28.0627 19.8073L28.0232 23.5179L27.9836 27.2285L28.7913 28.0205C29.6362 28.8486 30.0002 29.6173 30.0002 30.5733V30.9843L30.4363 30.6884C31.3393 30.0758 31.6491 30.0545 39.6956 30.0545H47.2035L48.1019 30.5003L49.0003 30.9462L49.0044 30.5003C49.0099 29.8978 49.3803 28.8654 49.7557 28.4065C49.9246 28.1999 50.2773 27.8681 50.5396 27.6693L51.0164 27.3078L50.9771 23.5505L50.9378 19.7934L50.4709 18.8495C49.9087 17.7126 49.1844 17.004 48.0228 16.4538L47.1878 16.0583L39.7503 16.0373C35.5132 16.0253 32.1038 16.0662 31.8275 16.1325ZM23.8752 29.2113C22.984 29.6563 23.0005 29.5096 23.0005 36.9902C23.0005 43.1052 23.0191 43.7133 23.2191 44.1133C23.5525 44.7807 24.0927 44.9877 25.5002 44.9877C26.9077 44.9877 27.4478 44.7807 27.7812 44.1133C27.9812 43.7131 27.9998 43.1013 27.9999 36.915L28.0002 30.154L27.7152 29.7311C27.2944 29.107 26.9707 28.9962 25.5627 28.9943C24.6202 28.9931 24.205 29.0464 23.8752 29.2113ZM51.7741 29.2455C50.9952 29.7203 51.0003 29.6688 51.0006 37.0175C51.0007 44.4676 50.9846 44.3244 51.8753 44.7692C52.4915 45.0769 54.5092 45.0769 55.1253 44.7692C56.0165 44.3241 56 44.4709 56 36.9902C56 29.5096 56.0165 29.6563 55.1253 29.2113C54.4606 28.8792 52.3393 28.9009 51.7741 29.2455ZM32.0002 32.1549C31.3867 32.3482 30.3403 33.4314 30.1522 34.068C30.0686 34.3509 30.0002 35.1241 30.0002 35.7863V36.9902H39.5002H49.0003V35.7863C49.0003 34.2743 48.8417 33.7447 48.1627 32.9898C47.2394 31.9632 47.4738 31.9897 39.4467 32.0043C34.7191 32.0129 32.2953 32.0619 32.0002 32.1549ZM12.0001 33.991V34.9907H9.50006H7.00004V33.991V32.9913H9.50006H12.0001V33.991ZM30.0002 41.6821C30.0002 44.3743 30.0002 44.3746 30.3071 44.6813L30.6138 44.9881H39.5002H48.3867L48.6934 44.6813C49.0003 44.3746 49.0003 44.3743 49.0003 41.6821V38.9897H39.5002H30.0002V41.6821Z" fill="white"/>
</svg>
