<svg width="44" height="44" viewBox="0 0 44 44" fill="none" xmlns="http://www.w3.org/2000/svg">
<path fill-rule="evenodd" clip-rule="evenodd" d="M0 22V44H22H44V30.8086V17.6172H41.8086H39.6172V28.6172V39.6172H33H26.3828V37.4258V35.2344H24.1914H22V37.4258V39.6172H13.1914H4.38281V31.9258V24.2344H13.1914H22V26.4258V28.6172H24.1914H26.3828V24.1914V19.7656H15.3828H4.38281V12.0742V4.38281H13.1477H21.9125L21.9348 8.78711L21.957 13.1914H24.1484H26.3398L26.3621 8.78711L26.3844 4.38281H33.0008H39.6172V6.57422V8.76562H41.8086H44V4.38281V0H22H0V22ZM11 31.9027V35.1881L11.8394 34.3519C12.3011 33.8919 12.7164 33.5156 12.7624 33.5156C12.8083 33.5156 13.5235 34.1924 14.3516 35.0195L15.8573 36.5234L17.4023 34.9766L18.9474 33.4297L17.4027 31.8832L15.858 30.3366L16.7145 29.4769L17.571 28.6172H14.2855H11V31.9027Z" fill="white"/>
</svg>
