<svg width="45" height="46" fill="none" xmlns="http://www.w3.org/2000/svg"><path fill-rule="evenodd" clip-rule="evenodd" d="M27.34.287l-.284.287v5.221l-.234.236a.78.78 0 01-.966.113c-.108-.064-1.598-1.32-3.31-2.788C20.832 1.886 19.321.642 19.187.59a.679.679 0 00-.488 0c-.133.05-4.395 3.634-9.471 7.962L0 16.423l.678.027c.582.024.709.063.905.273l.228.244.047 11.455.048 11.455.225.184c.219.179.521.184 10.142.184h9.915V35.56c0-4.54.006-4.699.198-5.097.643-1.34 3.163-2.248 6.937-2.497l.978-.065V25.82c.001-1.155.046-2.243.101-2.445.33-1.197 2.432-2.273 5.12-2.62l.495-.065.03-1.861c.028-1.81.035-1.868.257-2.105.195-.21.323-.248.898-.273l.67-.028-2.876-2.45c-2.003-1.708-2.907-2.538-2.975-2.734-.061-.18-.097-2.196-.097-5.503 0-4.996-.008-5.231-.183-5.449-.179-.223-.213-.227-2.149-.256L27.625 0l-.285.287zm9.643 21.965c-3.161.168-5.28.931-4.96 1.786.345.922 4.337 1.628 7.857 1.39 3.571-.24 5.565-.991 4.989-1.878-.589-.906-4.172-1.496-7.886-1.298zm-5.004 3.724c-.03.03-.055.308-.055.617 0 .63.115.806.736 1.124 2.51 1.286 8.323 1.387 11.165.194C44.92 27.45 45 27.36 45 26.579v-.658l-.883.318c-1.882.678-4.118.982-6.466.88-1.922-.083-3.947-.487-5.266-1.05-.193-.082-.375-.124-.406-.093zm12.257 3.505c-1.584.57-3.678.946-5.256.946-.612 0-.675.018-.613.169.038.092.091.466.12.83l.05.662 1.012-.065c1.964-.126 3.654-.492 4.677-1.013.739-.376.788-.453.755-1.176l-.029-.61-.716.257zm-15.462.141c-2.545.19-4.502.752-4.906 1.408-.28.454.485.987 1.954 1.361 2.424.617 6.9.596 9.235-.043 1.218-.334 1.877-.805 1.76-1.259-.129-.494-1.435-1-3.317-1.285-.96-.145-3.77-.253-4.726-.182zm15.176 3.235c-1.177.423-2.83.74-4.223.811l-1.217.062v1.635l1.073-.064c2.12-.126 4.227-.637 5.02-1.216.395-.289.397-.293.397-.915 0-.441-.035-.622-.12-.615-.065.006-.484.142-.93.302zm-20.14 1.117c0 .64.016.686.288.882 1.08.775 3.453 1.262 6.155 1.262 2.5 0 4.496-.325 5.688-.927.848-.428.946-.56.946-1.277 0-.551-.018-.612-.167-.553-.888.356-2.3.758-3.231.92-1.612.28-4.672.282-6.259.005-.89-.156-2.564-.632-3.3-.937-.088-.037-.12.123-.12.625zm20 2.204c-1.301.454-2.535.687-4.036.762l-1.264.062v1.608h.576c2.088 0 4.989-.697 5.698-1.37.18-.17.216-.305.216-.813 0-.43-.035-.604-.12-.594-.065.008-.547.163-1.07.346zm-20 1.086v.675l.454.29c1.374.88 4.72 1.39 7.56 1.153 2.15-.18 4.193-.734 4.8-1.304.235-.22.263-.313.263-.877 0-.466-.031-.617-.12-.58-.528.22-2.262.75-2.86.873-2.984.619-6.798.347-9.49-.675l-.606-.23v.675zm0 3.264c0 .763.044.819.965 1.254 2.365 1.116 7.594 1.246 10.447.26 1.437-.496 1.665-.705 1.665-1.52 0-.684.16-.668-1.48-.148-1.79.567-2.669.683-5.153.678-2.003-.003-2.302-.026-3.407-.26a19.704 19.704 0 01-2.124-.586l-.912-.328v.65zm0 3.279c0 .638.013.673.317.907 1.413 1.087 5.934 1.613 9.18 1.07 1.686-.283 3.253-.866 3.481-1.297.117-.22.134-1.258.022-1.258-.043 0-.443.125-.889.277-2.055.7-3.76.93-6.288.846-2.154-.07-3.953-.42-5.464-1.058l-.358-.151v.664z" fill="#fff"/></svg>