<svg width="40" height="60" viewBox="0 0 40 60" fill="none" xmlns="http://www.w3.org/2000/svg">
<path d="M18.2 0.0999996C6.6 0.8 0.5 7.4 0 19.3H11.7C11.8 15.2 14.2 12.1 18.4 11.6C22.6 11.2 26.6 12.2 27.8 15C29.1 18.1 26.2 21.7 24.8 23.2C22.2 26 18 28.1 15.8 31.1C13.7 34.1 13.3 38 13.1 42.8H23.4C23.5 39.7 23.7 36.8 25.1 34.9C27.4 31.8 30.8 30.4 33.6 27.9C36.3 25.6 39.2 22.8 39.6 18.4C41.3 5.5 30.7 -0.7 18.2 0.0999996Z" fill="#E55025"/>
<path d="M18.5 60C22.0899 60 25 57.1346 25 53.5999C25 50.0653 22.0899 47.2 18.5 47.2C14.9101 47.2 12 50.0653 12 53.5999C12 57.1346 14.9101 60 18.5 60Z" fill="#E55025"/>
</svg>
