<svg width="381" height="130" fill="none" xmlns="http://www.w3.org/2000/svg"><g clip-path="url(#clip0_413_65)"><path d="M16.18 95.991c.113 3.102.282 6.937 1.805 10.547 2.424 5.583 6.201 7.557 12.177 6.26a25.678 25.678 0 008.062-3.215c5.581-3.496 10.712-7.613 15.786-11.787.902-.733 1.804-1.58 2.931-.564 1.072.959.677 2.087-.112 2.989-6.315 7.276-12.854 14.269-21.931 18.104-5.469 2.313-11.163 3.046-17.083 2.031C9.02 118.777 2.481 111.727.62 101.688-1.015 92.833.733 84.26 3.552 75.97c4.848-14.382 11.444-27.805 22.1-38.86 5.187-5.414 11.106-9.982 18.66-11.561 7.894-1.636 15.223-.79 20.297 6.599.902 1.297 1.86.845 2.988.563 4.623-1.24 9.302-2.255 14.15-1.917 4.736.338 7.33 3.44 6.146 7.388-.508 1.861-1.353 3.046-3.89 2.313-5.75-1.636-11.05.564-16.35 2.538-1.184.45-1.015 1.466-1.071 2.368-1.071 10.096-5.92 18.104-13.756 24.308-3.608 2.877-7.555 4.794-12.178 2.03-3.608-2.142-5.3-7.444-4.284-12.576.845-4.174 2.819-7.727 5.581-10.885 4.454-5.133 9.81-8.968 15.898-11.9.62-.283 1.692-.283 1.579-1.298-.113-.846-1.071-.959-1.804-1.128-6.822-1.466-12.685.677-17.477 5.358-6.935 6.825-11.557 15.228-15.504 24.026-4.567 10.096-8.062 20.586-8.457 32.655z" fill="#3DA3DB"/><path d="M263.453 52.226c-.113 1.297-.508 2.481-1.128 3.666-.62 1.184-.846 2.876-2.819 2.425-1.973-.452-1.296-2.087-1.296-3.215 0-5.302-1.241-10.265-4.398-14.551-3.946-5.302-9.246-8.347-15.786-9.362-1.014.056-1.973.056-2.819-.564-.902-.564-1.916-.057-2.818-.339-.902-1.24-2.086-.395-3.101-.395-2.312-.112-4.68-.056-6.991-.056-.451.056-.846-.226-1.297-.17-.112.114-.282.17-.451.283-.169.056-.394.17-.564.226-.902.507-1.973-.113-2.875.45-7.385.396-13.643 3.667-19.506 7.784-6.427 4.455-11.22 10.434-15.335 17.032-2.65 4.23-4.003 4.738-7.273 2.82-3.157-1.86-4.059-5.188-2.255-8.742 3.214-6.26 7.724-11.561 13.023-16.073 6.089-5.189 12.798-9.532 20.634-11.619 15.73-4.23 31.008-3.496 45.046 5.64 6.822 4.456 11.219 10.603 12.009 19.007.394 1.918.225 3.835 0 5.753z" fill="#F8D524"/><path d="M366.567 89.9c-3.608 7.558-6.765 15.228-9.753 23.067-.789 2.087-1.015 3.666 1.973 3.836 1.522.056 1.861.902 1.071 2.312-1.804 3.045-5.75 4.286-9.415 2.933-3.382-1.297-4.735-4.061-3.721-8.009 2.763-10.377 7.724-19.909 12.122-29.61l2.198-4.737c-.225-.113-.394-.282-.62-.395-1.353 1.861-2.819 3.666-4.115 5.64-3.665 5.696-7.668 11.167-11.896 16.412-2.481 3.046-5.469 4.456-9.415 3.271a9.783 9.783 0 01-6.766-8.516c-.169-1.805.057-3.553.508-5.301 1.86-7.22 4.623-14.1 8.513-20.417.789-1.24 1.522-2.82 3.383-2.369 2.142.508 4.115 1.354 5.412 3.215.62.959-.226 1.749-.733 2.538-3.777 6.091-6.484 12.69-8.344 19.627-.113.451-.282.902-.338 1.353-.113 1.467-.79 3.272.958 4.005 1.522.677 2.312-1.015 3.045-1.974 6.652-8.742 13.248-17.484 19.901-26.282 2.424-3.215 4.397-3.553 8.175-1.354 3.946 2.313 4.792 4.569 3.213 8.291l-4.736 10.829c.113.676-.225 1.184-.62 1.635zm-20.859-60.854c4.397-.903 8.738-2.256 13.305-1.241 3.89.902 6.596 3.102 7.611 7.05.676 2.65-.226 3.61-2.932 2.932-9.641-2.481-17.928.62-25.652 6.204-1.917 1.41-3.439 3.215-4.454 5.415-1.747 3.666-.056 6.88 4.003 7.444 5.863.79 11.388-.733 16.688-2.933 3.665-1.522 7.16-3.327 10.768-4.85 2.763-1.184 5.694-1.861 8.795-1.466 3.777.507 6.765 3.215 6.991 6.993.282 4.117-1.128 7.783-3.834 10.885-1.748 2.03-3.777 1.016-5.581-.112-1.804-1.072-1.973-2.595-1.128-4.4.508-1.071 1.128-2.2 1.466-3.327.62-2.087-.338-3.328-2.537-3.271-2.03.056-3.777 1.128-5.525 2.03-6.258 3.271-12.741 5.978-19.732 7.22-3.27.563-6.596.676-9.81.281-8.795-1.184-13.305-9.531-9.81-17.991 1.635-3.948 4.398-6.937 7.724-9.532 3.439-2.707 7.273-4.624 11.163-6.486.733-.845 1.804-.394 2.481-.845zM314.7 76.42c-2.142 1.185-4.285 2.257-6.371 3.498-4.115 2.425-3.89 2.425-2.988 6.993 1.861 9.475-5.468 19.74-17.702 17.315-4.51-.903-7.047-5.415-6.033-10.603 1.635-8.686 5.243-16.582 9.754-24.14 1.465-2.48 3.326-1.41 5.074-.507 1.86.959 2.819 2.087 1.635 4.456-3.496 6.88-6.315 14.043-9.021 21.206-.394 1.015-.733 2.143-.845 3.27-.057.96-.508 2.144.732 2.764 1.015.452 2.086.17 2.988-.338 2.03-1.184 3.27-3.046 4.116-5.189 1.071-2.65 1.917-5.358 1.297-8.234-.846-3.835.733-6.655 3.721-8.742 5.468-3.835 11.332-6.993 17.477-9.7 1.578-.677 3.044-.79 4.623-.17 3.1 1.297 3.664 2.538 2.255 5.584-3.327 7.05-6.089 14.325-8.852 21.657-.789 2.143-1.353 4.06 1.917 4.568 1.579.226 1.015 1.241.395 2.031-1.635 1.917-5.694 2.651-8.175 1.466-2.368-1.128-3.721-3.948-3.044-6.937.958-4.399 2.875-8.516 4.679-12.633 1.015-2.37 2.086-4.738 3.101-7.107-.282-.225-.507-.394-.733-.507zm-217.054-.281c-.338 7.388-2.255 14.269-6.653 20.303-4.848 6.656-12.854 9.476-20.408 7.276-6.878-2.03-10.994-9.193-9.415-17.032 1.635-8.01 6.427-13.875 13.192-18.161 2.368-1.466 4.961-1.523 7.555-.395 1.296.564 2.255 1.41 2.537 2.82.282 1.58-1.128 1.974-2.143 2.594-4.905 3.159-9.133 6.881-11.557 12.352-1.015 2.256-1.466 4.625-1.41 7.106.226 5.47 4.454 7.896 9.19 5.076 5.469-3.271 7.78-8.685 9.415-14.495.677-2.368.62-4.793.226-7.275-.339-1.974.056-3.722 1.635-5.076 1.747-1.523 3.777-2.312 5.976-1.523 2.03.79 1.69 2.933 1.86 4.625.056.677 0 1.24 0 1.805zm33.207-7.219c.62.225 1.127.056 1.578-.339 2.086-1.86 3.777-.564 5.469.677 1.917 1.467 1.353 3.159.564 5.02-2.594 5.752-5.018 11.505-7.555 17.258-1.579 3.553-1.861 7.05.507 10.434 1.128 1.635.451 2.086-1.296 2.03-5.413-.113-9.415-5.47-8.062-11.167 1.353-5.47 3.608-10.603 5.919-15.679.057-.17.169-.338.226-.508.169-.79 1.466-1.692.338-2.368-1.015-.62-1.917.338-2.537 1.184-.564.79-1.015 1.58-1.466 2.425-3.946 8.009-8.287 15.736-13.981 22.729-.226.846-.677 1.579-1.635 1.748-5.92 3.666-11.84.452-12.121-6.542-.057-1.072-.057-2.256.958-2.763 1.24-.62 1.466.79 1.973 1.466 1.973 2.425 3.326 2.481 5.694-.17 5.92-6.598 10.43-14.212 14.997-21.77 1.127-1.86 1.973-3.89 4.228-4.624.958-.62 2.03-.17 3.044-.282 1.128.282 2.368.225 3.158 1.24zm24.806 21.6c-.451 0-.959-.056-1.41 0-1.522.283-3.495-1.466-4.51-.056-1.297 1.749-1.917 4.061-2.03 6.373-.056 1.636.395 3.159.846 4.681.62 2.313 0 2.933-2.311 2.426-2.932-.621-5.582-4.287-5.807-7.896-.169-2.877.733-5.584 1.578-8.234a83.572 83.572 0 017.78-17.484c1.748-2.99 5.92-2.82 7.668.282.62 1.071-.057 1.805-.395 2.594-1.409 3.158-2.762 6.373-4.285 9.475-.733 1.58-.282 2.256 1.353 2.425 1.128.113 2.255.226 3.383.226 2.537 0 4.285-.733 5.243-3.553 1.41-4.287 3.552-8.29 5.863-12.126 1.579-2.594 3.327-1.636 5.244-.677 1.973 1.015 2.593 2.2 1.522 4.512-2.819 6.035-5.243 12.239-7.893 18.33-1.41 3.27-1.691 6.542-.395 9.813.959 2.425-.282 2.595-2.086 2.313-3.326-.564-6.089-4.512-6.145-8.517 0-.45.056-.958.113-1.41.338-3.496.338-3.496-3.326-3.496zm104.298 0c-.564 0-1.127-.112-1.691 0-1.522.283-3.326-1.579-4.454 0-1.353 1.862-2.029 4.23-1.973 6.656.056 1.522.338 2.989.846 4.399.789 2.256.169 2.876-2.143 2.369-3.608-.734-6.37-5.133-5.919-9.42.451-4.455 2.029-8.572 3.664-12.633a96.381 96.381 0 015.92-12.125c1.635-2.764 3.495-1.749 5.468-.677 2.03 1.072 2.481 2.425 1.297 4.568-1.579 2.99-2.819 6.148-4.228 9.193-.62 1.41-.282 2.087 1.296 2.2 1.297.056 2.594.225 3.89.282 2.368 0 3.891-.902 4.736-3.384 1.466-4.23 3.552-8.29 5.863-12.126 1.635-2.65 3.44-1.861 5.469-.733 1.917 1.072 2.537 2.256 1.353 4.512-3.157 6.26-5.75 12.859-8.287 19.401-1.072 2.65-1.184 5.245-.226 7.952.338.959 1.015 2.087.057 2.877-.959.733-2.143.282-3.214-.226-3.157-1.466-5.243-5.47-4.792-9.419.451-3.665.451-3.665-2.932-3.665zm-60.944-22.841c4.397.451 8.062 1.805 9.246 6.712 1.071 4.511-1.015 9.53-5.356 12.69-2.932 2.199-6.314 3.27-9.866 3.722-1.071.112-2.424.564-2.875-.903-.451-1.523.056-2.82 1.635-3.44 1.916-.79 3.777-1.58 5.525-2.764 1.353-.902 2.593-1.917 3.213-3.44.789-1.748.959-3.497-1.24-4.512-1.635-.338-3.27-.395-4.849 0-4.51 1.24-6.539 4.512-7.216 8.911-.507 2.256 0 4.568-.282 6.88 1.353 6.374 5.018 8.404 11.727 6.487 2.48-.734 4.679-1.918 6.483-3.779.733-.733 1.522-1.297 2.424-.564.959.733.508 1.635.113 2.538-2.086 4.681-9.641 8.629-15.955 8.291-5.412-.282-10.486-4.061-12.29-9.306-3.608-10.378 2.029-22.109 12.572-26.17.846-.338 1.748-.676 2.593-1.015 1.41-.79 2.932-.225 4.398-.338zm29.316 18.33c-3.213 1.184-6.201 2.2-9.471 1.86-3.214-.338-4.849-1.804-4.961-5.019-.226-5.132 1.522-9.87 4.228-14.1 1.409-2.255 3.721-.62 5.581.17 1.635.733 1.692 1.974.902 3.496-1.127 2.257-2.255 4.569-2.706 7.05-.338 1.805.395 2.651 2.255 2.538 2.707-.225 4.793-1.579 6.484-3.553 2.029-2.369 3.439-5.132 4.792-7.896 1.466-2.876 2.481-3.27 5.243-1.974 2.763 1.297 3.101 2.482 1.748 5.302-3.439 7.106-6.314 14.438-9.19 21.77-.845 2.2-1.24 4.004 1.973 4.455 1.635.226 1.072 1.185.395 1.974-1.466 1.749-5.412 2.538-7.836 1.636-2.312-.902-3.721-3.328-3.496-6.148.226-2.763 1.297-5.245 2.424-7.726.451-1.297 1.072-2.594 1.635-3.835z" fill="#3DA3DB"/><path d="M261.479 27.861c-2.255-.056-6.145-3.44-6.596-5.47-.225-.96.282-1.692.846-2.256 2.988-2.933 5.581-6.26 9.528-8.01 2.086-.958 6.934.678 7.836 2.708.338.733 0 1.353-.282 1.861-2.537 4.456-6.145 7.896-10.26 10.885-.282.282-.846.282-1.072.282zm-90.204 14.1c-.056 2.764-1.071 3.666-3.664 2.99-4.736-1.242-9.021-3.554-13.249-5.866-.902-.508-1.015-1.298-.902-2.144.395-2.256 1.297-4.23 2.875-5.978.846-.902 1.804-1.015 2.819-.62 4.51 1.748 8.288 4.625 11.276 8.403.676.903.902 2.03.845 3.215zm16.632-16.299c-1.522 2.086-3.214 2.312-5.131.507-1.804-1.635-3.382-3.44-4.623-5.527.113-.902-.676-1.184-1.127-1.692-1.353-2.256-2.424-4.681-.057-6.824 3.947-3.553 6.597-4.06 8.795 1.128 1.184 2.82 2.65 5.583 3.552 8.516.282 1.015.959 2.312-.394 3.215-.282-.113-.621-.057-.903 0 0 0-.169.169-.112.169a.775.775 0 000 .508z" fill="#F7D525"/><path d="M284.03 43.597c-3.664 1.466-7.272 2.932-11.219 3.44-2.198.282-4.003-.056-4.735-2.369-.677-2.143-.339-3.948 1.804-5.301 2.762-1.692 5.637-2.877 8.738-3.553 2.368-.508 4.623-.113 6.427 1.748 2.594 2.707 2.368 3.891-1.015 6.035z" fill="#F7D526"/><path d="M214.855 7.67c0 1.58-.113 3.159 0 4.738.169 2.65-1.409 3.61-3.608 4.117-2.537.564-2.875-1.128-3.383-2.933-.789-2.763-1.691-5.527-2.142-8.403-.282-1.805.62-2.82 2.03-3.553 1.916-.96 3.777-2.2 6.032-1.41.733.225.958 1.015.958 1.86.057 1.862.057 3.723.113 5.584z" fill="#F6D428"/><path d="M232.952 14.833c-.225-2.087.057-4.06.677-6.035-.677-2.538.846-4.342 2.03-6.26C236.786.902 238.59.958 240.281.62c.903-.056 1.917-.62 2.763.226.564.451 1.24.79 1.24 1.692.564.733.395 1.523 0 2.256-.902 3.327-2.424 6.373-4.228 9.362-.677 1.072-1.409 1.918-2.593 2.425-1.635-.225-3.496.113-4.511-1.748z" fill="#F7D525"/><path d="M164.059 127.067c-.056.339-.169.733-.169 1.072 0 1.071-.395 1.805-1.691 1.692-1.184-.113-1.241-.903-1.241-1.805l-.169-9.193c.62-1.41 1.635-1.184 2.706-.677.226.226.395.395.564.621 1.015 1.184 1.86 3.158 3.101 3.44 1.296.282 1.804-2.03 2.762-3.102.62-.733 1.353-.959 2.255-.79 1.241.226.959 1.185.959 1.974v7.84c0 .902 0 1.692-1.241 1.748-1.409.057-1.465-.846-1.465-1.861v-4.23c-1.974-.113-2.255 5.245-5.074 1.41-1.015.282-.564 1.466-1.297 1.861zm44.031-2.876c-.113 1.466-.846 2.82-2.424 3.609-1.128.508-2.65.395-3.214 1.918-.056.169-.507.169-.789.169-1.973.169-6.371-3.666-6.484-5.753-.112-2.086.677-3.609 2.707-4.399 4.002-1.635 3.946-1.635 7.723.17 1.635.846 2.537 2.256 2.481 4.286zm27.681 5.753c-3.721 0-6.145-2.256-6.201-5.809-.057-3.61 2.537-6.148 6.258-6.092 3.608.057 6.088 2.538 6.088 5.979 0 3.44-2.593 5.922-6.145 5.922zm-103.058-11.901c3.721-.056 6.089 2.144 6.145 5.753.056 3.779-2.255 6.091-6.089 6.148-3.664 0-6.032-2.313-6.032-5.922 0-3.553 2.368-5.922 5.976-5.979zm-27.118.339c-.225 1.579-1.296 2.425-2.198 3.327-1.353 1.354-1.297 2.482 0 3.779.563.564 1.071 1.297 1.522 2.03.394.621 1.522 1.354.676 2.087-.733.621-2.029.508-2.819-.338-1.071-1.241-2.029-2.594-3.1-4.004-.733 1.184-.282 2.199-.395 3.214-.056.846-.282 1.467-1.297 1.41-.902 0-1.41-.338-1.465-1.297v-9.024c0-.959.507-1.297 1.409-1.353.958 0 1.297.507 1.297 1.41 0 .789.056 1.635.112 3.102 1.184-1.467 1.974-2.426 2.707-3.441 1.014-1.353 2.198-1.184 3.551-.902zm162.819-.339c1.24.339 2.424.846 3.439 1.749.676 1.071 1.353 2.087.451 3.384-.677 1.184-1.522 2.086-2.706 2.707-.733.959-1.917-.057-2.706.677-.057.733-.057 1.466-.113 2.199-.057.621-.338 1.015-1.015 1.015-.62 0-1.579.17-1.579-.676-.112-3.554-.62-7.163.282-10.716.057-.169.451-.226.733-.395.959-.338 2.086-.282 3.214.056zm30.669 4.005c-.056 1.692 0 3.384-.112 5.076-.057 1.071.62 2.82-1.354 2.707-1.916-.113-1.183-1.749-1.296-2.876-.113-.903-.057-1.862 0-2.82.056-1.692.338-3.554-2.368-3.328-.789.056-1.128-.564-1.071-1.354.056-.789.507-1.24 1.24-1.24 2.424-.057 4.905-.339 7.273.056 1.973.282 1.466 1.636.338 2.707-.733.79-2.255-.451-2.65 1.072z" fill="#3DA3DB"/><path d="M200.028 124.078c-.169.62.338 1.692-.789 1.748-.959 0-1.466-.789-1.41-1.748 0-.902.451-1.748 1.41-1.748 1.127.056.62 1.128.789 1.748zm2.649-.113c.17-.62-.338-1.692.903-1.635 1.014.056 1.353.958 1.353 1.804-.057.903-.564 1.749-1.523 1.636-1.127-.113-.563-1.184-.733-1.805zm36.082.057c-.169 2.03-1.071 3.44-3.1 3.496-2.086.057-3.383-1.41-3.383-3.384 0-1.861 1.071-3.214 3.157-3.214 2.142 0 2.988 1.41 3.326 3.102zm-103.002-.057c-.056 2.369-1.071 3.553-3.1 3.497-2.143 0-3.214-1.184-3.214-3.328 0-2.03 1.071-3.101 3.101-3.158 2.142-.056 3.101 1.241 3.213 2.989zm131.811-.564c-.902.057-1.071-.507-1.071-1.24 0-.677.338-1.016 1.015-1.016.733 0 1.24.282 1.297 1.128 0 .734-.451 1.072-1.241 1.128zM44.087 61.926c.395-3.553 2.82-6.599 5.469-9.362 2.537-2.65 5.469-4.85 8.626-6.712.62-.338 1.24-1.127 1.973-.507.564.451.282 1.24.113 1.861-1.635 7.388-5.75 13.141-12.009 17.371-2.537 1.748-4.172.846-4.172-2.65z" fill="#fff"/></g><defs><clipPath id="clip0_413_65"><path fill="#fff" d="M0 0h381v130H0z"/></clipPath></defs></svg>