<svg width="56" height="45" fill="none" xmlns="http://www.w3.org/2000/svg"><path fill-rule="evenodd" clip-rule="evenodd" d="M15.942.656c-.065.567-.942 10.14-.942 10.287 0 .03 1.35.054 3 .054h3l.004 9.529c.004 9.276.01 9.512.226 8.889a3.556 3.556 0 011.35-1.77l.42-.286V10.998h3c1.65 0 3-.025 3-.055 0-.147-.877-9.72-.942-10.287L27.982 0H16.018l-.076.656zm-7.05 11.492c-.278.368-.65.986-.828 1.373-.314.686-.682 2.13-.687 2.692-.002.272-.02.268-.658-.138-.914-.58-2.007-.961-3-1.044l-.844-.071.072.611c.358 3.03 2.436 5.47 5.303 6.225.684.18.679.182-1.281.19C5.48 21.992 5 22.032 5 22.15c0 .128 1.26 4.64 1.558 5.577l.084.265H0v16.996h2V39.99h15v5h2V27.996l-3.36-.034-3.36-.033.857-2.937c.47-1.615.858-2.95.86-2.968.002-.017-.883-.035-1.966-.04l-1.968-.009.75-.215c1.766-.509 3.384-1.772 4.249-3.319.445-.796.938-2.43.938-3.11v-.372l-.844.07c-.996.084-1.965.424-2.91 1.02l-.683.432-.088-.755c-.168-1.452-.995-3.27-1.832-4.027-.239-.215-.26-.203-.751.448zm22.935 3.985c-.78.186-1.912.854-2.463 1.451-.28.305-.688.93-.906 1.389l-.395.834-.04 3.71-.04 3.712.808.791c.845.829 1.21 1.597 1.21 2.553v.411l.435-.296c.903-.612 1.213-.633 9.26-.633h7.508l.898.445.898.446.004-.446c.006-.602.376-1.635.752-2.093.169-.207.521-.539.784-.738l.476-.361-.039-3.758-.04-3.757-.466-.944c-.562-1.136-1.287-1.845-2.448-2.395l-.835-.396-7.438-.02c-4.237-.013-7.646.028-7.922.095zM23.876 29.21c-.891.445-.875.299-.875 7.78 0 6.114.02 6.722.22 7.122.332.668.873.875 2.28.875 1.408 0 1.948-.207 2.281-.875.2-.4.219-1.012.219-7.198v-6.761l-.285-.423c-.42-.624-.744-.735-2.152-.737-.943 0-1.358.052-1.688.217zm27.9.035c-.78.474-.775.423-.774 7.771 0 7.45-.016 7.307.874 7.752.617.308 2.634.308 3.25 0 .892-.445.875-.298.875-7.779 0-7.48.017-7.334-.875-7.779-.664-.332-2.786-.31-3.35.035zM32 32.154c-.613.193-1.66 1.276-1.848 1.913-.083.283-.152 1.056-.152 1.718v1.204h19v-1.204c0-1.512-.158-2.041-.837-2.796-.924-1.027-.69-1-8.716-.986-4.728.009-7.152.058-7.447.15zM12 33.99v1H7v-2h5v1zm18 7.691c0 2.692 0 2.693.307 3l.307.306h17.773l.306-.307c.307-.306.307-.307.307-2.999V38.99H30v2.692z" fill="#fff"/></svg>